STARTFONT 2.1
COMMENT
COMMENT Converted from OpenType font "CircularStd-Book.otf" by "otf2bdf 3.0".
COMMENT
FONT -FreeType-Circular Std Book-Medium-R-Normal--28-200-100-100-P-138-ISO10646-1
SIZE 20 100 100
FONTBOUNDINGBOX 42 31 -1 -6
STARTPROPERTIES 19
FOUNDRY "FreeType"
FAMILY_NAME "Circular Std Book"
WEIGHT_NAME "Medium"
SLANT "R"
SETWIDTH_NAME "Normal"
ADD_STYLE_NAME ""
PIXEL_SIZE 28
POINT_SIZE 200
RESOLUTION_X 100
RESOLUTION_Y 100
SPACING "P"
AVERAGE_WIDTH 138
CHARSET_REGISTRY "ISO10646"
CHARSET_ENCODING "1"
FONT_ASCENT 27
FONT_DESCENT 7
COPYRIGHT "Generated in 2013 by FontLab Studio. Copyright info pending."
_OTF_FONTFILE "CircularStd-Book.otf"
_OTF_PSNAME "CircularStd-Book"
ENDPROPERTIES
CHARS 332
STARTCHAR 0000
ENCODING 0
SWIDTH 0 0
DWIDTH 0 0
BBX 0 0 0 0
BITMAP
ENDCHAR
STARTCHAR 000D
ENCODING 13
SWIDTH 252 0
DWIDTH 7 0
BBX 0 0 0 0
BITMAP
ENDCHAR
STARTCHAR 0020
ENCODING 32
SWIDTH 252 0
DWIDTH 7 0
BBX 0 0 0 0
BITMAP
ENDCHAR
STARTCHAR 0021
ENCODING 33
SWIDTH 324 0
DWIDTH 9 0
BBX 3 20 3 0
BITMAP
E0
E0
E0
E0
E0
E0
E0
E0
E0
C0
C0
C0
C0
C0
00
00
40
E0
E0
E0
ENDCHAR
STARTCHAR 0022
ENCODING 34
SWIDTH 360 0
DWIDTH 10 0
BBX 8 7 1 11
BITMAP
67
E7
E7
E7
63
62
42
ENDCHAR
STARTCHAR 0023
ENCODING 35
SWIDTH 756 0
DWIDTH 21 0
BBX 18 18 1 0
BITMAP
018600
038600
030E00
030C00
3FFFC0
3FFFC0
071C00
061C00
061800
061800
0E1800
FFFF80
FFFF80
0C3000
0C3000
1C3000
1C7000
187000
ENDCHAR
STARTCHAR 0024
ENCODING 36
SWIDTH 612 0
DWIDTH 17 0
BBX 13 24 2 -3
BITMAP
0700
0700
0700
1FC0
3FE0
7FF0
E778
E730
E700
F700
7F00
3FC0
1FE0
07F0
0778
C738
C738
E738
FF70
7FE0
1FC0
0700
0700
0700
ENDCHAR
STARTCHAR 0025
ENCODING 37
SWIDTH 828 0
DWIDTH 23 0
BBX 19 18 2 0
BITMAP
3C0380
7E0300
E70600
C30E00
C31C00
E71800
FF3800
3C7000
006000
00C000
01C780
039FE0
031CE0
071860
0E1860
0C1CE0
180FC0
380780
ENDCHAR
STARTCHAR 0026
ENCODING 38
SWIDTH 684 0
DWIDTH 19 0
BBX 17 20 2 0
BITMAP
0F8000
3FC000
39E000
70E000
706000
70E000
70E000
3BC000
1F8000
0F0100
1F0300
7B8700
71CE00
E0FE00
E07C00
E07800
E0FC00
7FEE00
7FCF00
1F0780
ENDCHAR
STARTCHAR 0027
ENCODING 39
SWIDTH 216 0
DWIDTH 6 0
BBX 3 7 1 11
BITMAP
60
E0
E0
E0
60
60
40
ENDCHAR
STARTCHAR 0028
ENCODING 40
SWIDTH 288 0
DWIDTH 8 0
BBX 6 26 2 -4
BITMAP
08
0C
18
38
30
70
60
E0
C0
C0
C0
C0
C0
C0
C0
C0
C0
C0
E0
60
70
70
38
18
1C
08
ENDCHAR
STARTCHAR 0029
ENCODING 41
SWIDTH 288 0
DWIDTH 8 0
BBX 7 26 0 -4
BITMAP
40
E0
70
30
38
18
1C
0C
0C
0E
0E
06
06
06
06
0E
0E
0C
0C
1C
18
38
30
70
E0
40
ENDCHAR
STARTCHAR 002A
ENCODING 42
SWIDTH 432 0
DWIDTH 12 0
BBX 10 10 1 10
BITMAP
0C00
0C00
0C00
EDC0
FFC0
1F00
1E00
3F00
7380
2100
ENDCHAR
STARTCHAR 002B
ENCODING 43
SWIDTH 576 0
DWIDTH 16 0
BBX 12 14 2 1
BITMAP
0600
0600
0600
0600
0600
0600
FFF0
FFF0
0600
0600
0600
0600
0600
0600
ENDCHAR
STARTCHAR 002C
ENCODING 44
SWIDTH 288 0
DWIDTH 8 0
BBX 4 8 2 -4
BITMAP
60
F0
F0
70
30
30
60
C0
ENDCHAR
STARTCHAR 002D
ENCODING 45
SWIDTH 360 0
DWIDTH 10 0
BBX 8 2 1 7
BITMAP
FF
FF
ENDCHAR
STARTCHAR 002E
ENCODING 46
SWIDTH 288 0
DWIDTH 8 0
BBX 4 4 2 0
BITMAP
60
F0
F0
60
ENDCHAR
STARTCHAR 002F
ENCODING 47
SWIDTH 432 0
DWIDTH 12 0
BBX 12 20 0 0
BITMAP
0070
0060
00E0
00C0
01C0
0180
0380
0300
0700
0700
0600
0E00
0C00
1C00
1800
3800
3000
7000
6000
E000
ENDCHAR
STARTCHAR 0030
ENCODING 48
SWIDTH 612 0
DWIDTH 17 0
BBX 15 18 1 0
BITMAP
07C0
1FF0
3EF8
3838
701C
700C
600E
E00E
E00E
E00E
E00E
600C
700C
701C
3838
3EF8
1FF0
07C0
ENDCHAR
STARTCHAR 0031
ENCODING 49
SWIDTH 360 0
DWIDTH 10 0
BBX 7 18 1 0
BITMAP
0E
0E
3E
FE
FE
0E
0E
0E
0E
0E
0E
0E
0E
0E
0E
0E
0E
0E
ENDCHAR
STARTCHAR 0032
ENCODING 50
SWIDTH 540 0
DWIDTH 15 0
BBX 13 18 1 0
BITMAP
0F80
3FE0
7DF0
7070
E030
E030
6030
0070
00F0
01E0
07C0
0F00
3C00
7800
7000
FFF8
FFF8
FFF8
ENDCHAR
STARTCHAR 0033
ENCODING 51
SWIDTH 540 0
DWIDTH 15 0
BBX 13 18 1 0
BITMAP
7FF8
7FF8
7FF8
00F0
01E0
0380
0700
0FC0
07F0
00F8
0038
0038
E038
E038
7038
7CF0
3FE0
0FC0
ENDCHAR
STARTCHAR 0034
ENCODING 52
SWIDTH 576 0
DWIDTH 16 0
BBX 15 18 1 0
BITMAP
01E0
01E0
03E0
0760
0E60
0E60
1C60
3860
3860
7060
E060
FFFE
FFFE
FFFE
0060
0060
0060
0060
ENDCHAR
STARTCHAR 0035
ENCODING 53
SWIDTH 540 0
DWIDTH 15 0
BBX 13 18 1 0
BITMAP
1FF8
1FF8
3FF8
3800
3000
7000
77C0
7FE0
7DF0
1038
0038
0038
6038
E038
F038
7DF0
3FE0
0F80
ENDCHAR
STARTCHAR 0036
ENCODING 54
SWIDTH 576 0
DWIDTH 16 0
BBX 14 18 1 0
BITMAP
01F8
0FF8
1FB8
3C00
3800
7000
77E0
6FF0
7CF8
F83C
F01C
701C
701C
701C
783C
3EF8
1FF0
07C0
ENDCHAR
STARTCHAR 0037
ENCODING 55
SWIDTH 468 0
DWIDTH 13 0
BBX 13 18 0 0
BITMAP
FFF8
FFF8
FFF8
0070
00E0
00C0
01C0
0380
0300
0700
0600
0E00
0E00
0C00
1C00
1C00
1C00
1C00
ENDCHAR
STARTCHAR 0038
ENCODING 56
SWIDTH 576 0
DWIDTH 16 0
BBX 13 18 1 0
BITMAP
0FC0
3FE0
78F0
7038
6038
7038
7030
38F0
1FE0
3FE0
7070
6038
E018
E038
7038
7CF8
3FF0
0FC0
ENDCHAR
STARTCHAR 0039
ENCODING 57
SWIDTH 576 0
DWIDTH 16 0
BBX 14 18 1 0
BITMAP
0F80
3FE0
7DF0
7038
E038
E01C
E01C
E03C
703C
7CFC
3FDC
0F98
0038
0038
0070
77E0
7FC0
3F00
ENDCHAR
STARTCHAR 003A
ENCODING 58
SWIDTH 288 0
DWIDTH 8 0
BBX 4 14 2 0
BITMAP
60
F0
F0
60
00
00
00
00
00
00
60
F0
F0
60
ENDCHAR
STARTCHAR 003B
ENCODING 59
SWIDTH 288 0
DWIDTH 8 0
BBX 4 18 2 -5
BITMAP
60
F0
F0
60
00
00
00
00
00
00
00
F0
F0
F0
30
30
20
E0
ENDCHAR
STARTCHAR 003C
ENCODING 60
SWIDTH 468 0
DWIDTH 13 0
BBX 11 14 1 1
BITMAP
0020
00E0
03E0
07C0
1F00
7C00
F000
F000
7C00
3F00
0FC0
03E0
00E0
0020
ENDCHAR
STARTCHAR 003D
ENCODING 61
SWIDTH 576 0
DWIDTH 16 0
BBX 13 8 2 4
BITMAP
FFF8
FFF8
0000
0000
0000
0000
FFF8
FFF8
ENDCHAR
STARTCHAR 003E
ENCODING 62
SWIDTH 468 0
DWIDTH 13 0
BBX 11 14 1 1
BITMAP
8000
E000
F800
3E00
0F80
03E0
00E0
00E0
03E0
0F80
3E00
F800
E000
8000
ENDCHAR
STARTCHAR 003F
ENCODING 63
SWIDTH 504 0
DWIDTH 14 0
BBX 12 20 1 0
BITMAP
0F80
3FC0
7FE0
F070
E070
E070
E070
0070
00E0
03C0
0780
0700
0E00
0E00
0000
0000
0400
0E00
0E00
0E00
ENDCHAR
STARTCHAR 0040
ENCODING 64
SWIDTH 828 0
DWIDTH 23 0
BBX 21 21 1 -1
BITMAP
00FE00
07FF80
0F03C0
1C00E0
380070
307B30
61FF38
618F18
E30718
E30618
E70618
E70638
E70630
638E70
63FFE0
70E3C0
380000
1C0000
0F03C0
07FF80
00FE00
ENDCHAR
STARTCHAR 0041
ENCODING 65
SWIDTH 684 0
DWIDTH 19 0
BBX 19 20 0 0
BITMAP
00E000
00F000
01F000
01B800
03B800
039800
031C00
071C00
070E00
0E0E00
0E0E00
0C0700
1FFF00
1FFF80
3FFF80
380380
3801C0
7001C0
7000C0
E000E0
ENDCHAR
STARTCHAR 0042
ENCODING 66
SWIDTH 612 0
DWIDTH 17 0
BBX 12 20 3 0
BITMAP
FF80
FFC0
C3E0
C0F0
C070
C070
C070
C0E0
C1E0
FF80
FFE0
C0F0
C070
C030
C030
C030
C070
C1F0
FFE0
FF80
ENDCHAR
STARTCHAR 0043
ENCODING 67
SWIDTH 756 0
DWIDTH 21 0
BBX 19 20 1 0
BITMAP
01F800
07FE00
1FFF80
1C03C0
3801C0
7000E0
7000C0
600000
E00000
E00000
E00000
E00000
600000
7000C0
7000C0
3801C0
3C0380
1FFF80
07FE00
01F800
ENDCHAR
STARTCHAR 0044
ENCODING 68
SWIDTH 720 0
DWIDTH 20 0
BBX 16 20 3 0
BITMAP
FFC0
FFF0
C1F8
C03C
C01E
C00E
C00E
C007
C007
C007
C007
C007
C007
C00E
C00E
C01C
C03C
C1F8
FFF0
FF80
ENDCHAR
STARTCHAR 0045
ENCODING 69
SWIDTH 576 0
DWIDTH 16 0
BBX 11 20 3 0
BITMAP
FFE0
FFE0
FFE0
C000
C000
C000
C000
C000
C000
FFE0
FFE0
FFE0
C000
C000
C000
C000
C000
FFE0
FFE0
FFE0
ENDCHAR
STARTCHAR 0046
ENCODING 70
SWIDTH 540 0
DWIDTH 15 0
BBX 11 20 3 0
BITMAP
FFE0
FFE0
FFE0
C000
C000
C000
C000
C000
C000
FFE0
FFE0
FFE0
C000
C000
C000
C000
C000
C000
C000
C000
ENDCHAR
STARTCHAR 0047
ENCODING 71
SWIDTH 756 0
DWIDTH 21 0
BBX 19 20 1 0
BITMAP
01F800
07FE00
1FFF80
3C03C0
3801C0
7000E0
700080
600000
E00000
E00000
E07FE0
E07FE0
6000E0
7000E0
7001E0
3801E0
3C03E0
1FFFE0
07FEE0
01F8E0
ENDCHAR
STARTCHAR 0048
ENCODING 72
SWIDTH 756 0
DWIDTH 21 0
BBX 15 20 3 0
BITMAP
C00E
C00E
C00E
C00E
C00E
C00E
C00E
C00E
FFFE
FFFE
FFFE
C00E
C00E
C00E
C00E
C00E
C00E
C00E
C00E
C00E
ENDCHAR
STARTCHAR 0049
ENCODING 73
SWIDTH 288 0
DWIDTH 8 0
BBX 2 20 3 0
BITMAP
C0
C0
C0
C0
C0
C0
C0
C0
C0
C0
C0
C0
C0
C0
C0
C0
C0
C0
C0
C0
ENDCHAR
STARTCHAR 004A
ENCODING 74
SWIDTH 540 0
DWIDTH 15 0
BBX 12 20 1 0
BITMAP
0070
0070
0070
0070
0070
0070
0070
0070
0070
0070
0070
0070
C070
C070
C070
E060
E0E0
7FE0
7FC0
1F00
ENDCHAR
STARTCHAR 004B
ENCODING 75
SWIDTH 684 0
DWIDTH 19 0
BBX 15 20 3 0
BITMAP
C01E
C03C
C078
C0F0
C1E0
C1C0
C380
C700
CE00
DE00
FF00
F780
F3C0
E1C0
C0E0
C0F0
C078
C038
C01C
C01E
ENDCHAR
STARTCHAR 004C
ENCODING 76
SWIDTH 540 0
DWIDTH 15 0
BBX 12 20 3 0
BITMAP
C000
C000
C000
C000
C000
C000
C000
C000
C000
C000
C000
C000
C000
C000
C000
C000
C000
FFF0
FFF0
FFF0
ENDCHAR
STARTCHAR 004D
ENCODING 77
SWIDTH 936 0
DWIDTH 26 0
BBX 21 20 3 0
BITMAP
E00078
F000F8
F000F8
F800F8
F801F8
DC01F8
DC03B8
DC03B8
CE0738
CE0738
C70638
C70E38
C38E38
C39C38
C39C38
C1F838
C1F838
C0F038
C0F038
C07038
ENDCHAR
STARTCHAR 004E
ENCODING 78
SWIDTH 756 0
DWIDTH 21 0
BBX 16 20 3 0
BITMAP
E007
F007
F807
F807
DC07
DE07
CE07
C707
C787
C387
C1C7
C1E7
C0E7
C077
C077
C03F
C01F
C01F
C00F
C007
ENDCHAR
STARTCHAR 004F
ENCODING 79
SWIDTH 792 0
DWIDTH 22 0
BBX 20 20 1 0
BITMAP
01F800
07FF00
0FFF80
1C03C0
3801E0
7000E0
700070
600070
E00070
E00070
E00070
E00070
600070
700060
7000E0
3801E0
3C03C0
1FFF80
07FE00
01F800
ENDCHAR
STARTCHAR 0050
ENCODING 80
SWIDTH 612 0
DWIDTH 17 0
BBX 13 20 3 0
BITMAP
FF80
FFE0
C3F0
C070
C038
C038
C038
C038
C070
C1F0
FFE0
FF80
C000
C000
C000
C000
C000
C000
C000
C000
ENDCHAR
STARTCHAR 0051
ENCODING 81
SWIDTH 792 0
DWIDTH 22 0
BBX 20 21 1 -1
BITMAP
01F800
07FF00
0FFF80
1C03C0
3801E0
7000E0
700070
600070
E00070
E00070
E00070
E00070
601870
701C60
700EE0
380FC0
3C07C0
1FFFC0
07FFE0
01F8E0
000040
ENDCHAR
STARTCHAR 0052
ENCODING 82
SWIDTH 612 0
DWIDTH 17 0
BBX 13 20 3 0
BITMAP
FFC0
FFE0
C1F0
C070
C038
C038
C038
C038
C070
C1F0
FFE0
FF80
C780
C380
C1C0
C1C0
C0E0
C0E0
C070
C078
ENDCHAR
STARTCHAR 0053
ENCODING 83
SWIDTH 576 0
DWIDTH 16 0
BBX 14 20 1 0
BITMAP
07C0
1FF0
3EF8
783C
701C
7000
7000
7800
3E00
1FE0
0FF8
00F8
001C
201C
E01C
E01C
701C
7EF8
3FF0
0FC0
ENDCHAR
STARTCHAR 0054
ENCODING 84
SWIDTH 576 0
DWIDTH 16 0
BBX 16 20 0 0
BITMAP
FFFF
FFFF
FFFF
01C0
01C0
01C0
01C0
01C0
01C0
01C0
01C0
01C0
01C0
01C0
01C0
01C0
01C0
01C0
01C0
01C0
ENDCHAR
STARTCHAR 0055
ENCODING 85
SWIDTH 684 0
DWIDTH 19 0
BBX 14 20 2 0
BITMAP
E00C
E00C
E00C
E00C
E00C
E00C
E00C
E00C
E00C
E00C
E00C
E00C
E00C
E00C
E01C
701C
703C
3FF8
1FF0
0FC0
ENDCHAR
STARTCHAR 0056
ENCODING 86
SWIDTH 648 0
DWIDTH 18 0
BBX 18 20 0 0
BITMAP
E001C0
700180
700380
300380
380700
380700
1C0700
1C0E00
1C0E00
0E0C00
0E1C00
061C00
071800
073800
033000
03F000
03F000
01E000
01E000
01E000
ENDCHAR
STARTCHAR 0057
ENCODING 87
SWIDTH 1008 0
DWIDTH 28 0
BBX 26 20 1 0
BITMAP
C01E00C0
E01E01C0
E01E01C0
E03E0180
603F0380
70370380
70730380
30738300
38638700
38E18700
38E1C700
18C1C600
1CC0CE00
1DC0EE00
0DC0EC00
0F806C00
0F807C00
0F807C00
07003800
07003800
ENDCHAR
STARTCHAR 0058
ENCODING 88
SWIDTH 612 0
DWIDTH 17 0
BBX 16 20 1 0
BITMAP
E00F
F00E
701C
383C
3838
1C70
0EE0
0EE0
07C0
0380
03C0
07C0
0EE0
0EE0
1C70
3838
3838
701C
E00E
E00E
ENDCHAR
STARTCHAR 0059
ENCODING 89
SWIDTH 612 0
DWIDTH 17 0
BBX 16 20 1 0
BITMAP
E00F
E00E
701C
781C
3838
1C38
1C70
0EE0
0EE0
07C0
03C0
0380
0380
0380
0380
0380
0380
0380
0380
0380
ENDCHAR
STARTCHAR 005A
ENCODING 90
SWIDTH 648 0
DWIDTH 18 0
BBX 15 20 1 0
BITMAP
7FFE
7FFE
7FFE
001E
003C
0038
0070
00E0
01E0
03C0
0380
0700
0E00
1E00
3C00
3800
7000
FFFE
FFFE
FFFE
ENDCHAR
STARTCHAR 005B
ENCODING 91
SWIDTH 288 0
DWIDTH 8 0
BBX 5 26 3 -4
BITMAP
F8
F8
C0
C0
C0
C0
C0
C0
C0
C0
C0
C0
C0
C0
C0
C0
C0
C0
C0
C0
C0
C0
C0
C0
F8
F8
ENDCHAR
STARTCHAR 005C
ENCODING 92
SWIDTH 432 0
DWIDTH 12 0
BBX 12 20 0 0
BITMAP
E000
6000
7000
3000
3800
1800
1C00
0C00
0E00
0E00
0700
0700
0380
0380
0180
01C0
00C0
00E0
0060
0070
ENDCHAR
STARTCHAR 005D
ENCODING 93
SWIDTH 288 0
DWIDTH 8 0
BBX 6 26 0 -4
BITMAP
FC
FC
1C
1C
1C
1C
1C
1C
1C
1C
1C
1C
1C
1C
1C
1C
1C
1C
1C
1C
1C
1C
1C
1C
FC
FC
ENDCHAR
STARTCHAR 005E
ENCODING 94
SWIDTH 504 0
DWIDTH 14 0
BBX 13 10 1 10
BITMAP
0700
0F00
0F80
1D80
19C0
38C0
30E0
7060
E070
E038
ENDCHAR
STARTCHAR 005F
ENCODING 95
SWIDTH 540 0
DWIDTH 15 0
BBX 15 2 0 -2
BITMAP
FFFE
FFFE
ENDCHAR
STARTCHAR 0060
ENCODING 96
SWIDTH 288 0
DWIDTH 8 0
BBX 5 4 1 15
BITMAP
F0
70
38
18
ENDCHAR
STARTCHAR 0061
ENCODING 97
SWIDTH 540 0
DWIDTH 15 0
BBX 12 14 1 0
BITMAP
0F80
3FC0
78E0
7070
6070
00F0
0FF0
3F70
7070
E070
E0F0
71F0
7FF0
1E70
ENDCHAR
STARTCHAR 0062
ENCODING 98
SWIDTH 576 0
DWIDTH 16 0
BBX 13 20 2 0
BITMAP
E000
E000
E000
E000
E000
E000
E7C0
FFE0
FCF0
F078
E038
E038
E018
E018
E018
E038
F038
F870
FFE0
E7C0
ENDCHAR
STARTCHAR 0063
ENCODING 99
SWIDTH 540 0
DWIDTH 15 0
BBX 13 14 1 0
BITMAP
0FC0
1FE0
3DF0
7078
6030
E000
E000
E000
E000
6030
7038
3DF0
1FE0
0F80
ENDCHAR
STARTCHAR 0064
ENCODING 100
SWIDTH 576 0
DWIDTH 16 0
BBX 13 20 1 0
BITMAP
0018
0018
0018
0018
0018
0018
0F98
1FD8
3CF8
7078
6038
E038
E018
E018
E038
E038
7038
7878
3FD8
0F98
ENDCHAR
STARTCHAR 0065
ENCODING 101
SWIDTH 540 0
DWIDTH 15 0
BBX 13 14 1 0
BITMAP
0F80
1FE0
3CF0
7070
6038
E038
FFF8
FFF8
E000
E000
7038
3CF0
3FE0
0F80
ENDCHAR
STARTCHAR 0066
ENCODING 102
SWIDTH 360 0
DWIDTH 10 0
BBX 8 21 1 0
BITMAP
0F
1F
3F
38
38
38
38
FF
FF
38
38
38
38
38
38
38
38
38
38
38
38
ENDCHAR
STARTCHAR 0067
ENCODING 103
SWIDTH 576 0
DWIDTH 16 0
BBX 13 19 1 -5
BITMAP
0F98
3FD8
38F8
7038
6038
E018
E018
E018
6038
7038
78F8
3FF8
0FB8
0038
E038
7038
78F0
3FE0
0F80
ENDCHAR
STARTCHAR 0068
ENCODING 104
SWIDTH 576 0
DWIDTH 16 0
BBX 12 20 2 0
BITMAP
E000
E000
E000
E000
E000
E000
E780
FFC0
F9E0
F0E0
E070
E070
E070
E070
E070
E070
E070
E070
E070
E070
ENDCHAR
STARTCHAR 0069
ENCODING 105
SWIDTH 252 0
DWIDTH 7 0
BBX 3 21 2 0
BITMAP
E0
E0
E0
40
00
00
00
E0
E0
E0
E0
E0
E0
E0
E0
E0
E0
E0
E0
E0
E0
ENDCHAR
STARTCHAR 006A
ENCODING 106
SWIDTH 252 0
DWIDTH 7 0
BBX 5 26 0 -5
BITMAP
38
38
38
10
00
00
00
38
38
38
38
38
38
38
38
38
38
38
38
38
38
38
38
78
F0
E0
ENDCHAR
STARTCHAR 006B
ENCODING 107
SWIDTH 540 0
DWIDTH 15 0
BBX 12 20 2 0
BITMAP
E000
E000
E000
E000
E000
E000
E0F0
E1E0
E3C0
E780
EF00
FE00
FE00
FF00
F700
E380
E1C0
E1E0
E0E0
E070
ENDCHAR
STARTCHAR 006C
ENCODING 108
SWIDTH 252 0
DWIDTH 7 0
BBX 3 20 2 0
BITMAP
E0
E0
E0
E0
E0
E0
E0
E0
E0
E0
E0
E0
E0
E0
E0
E0
E0
E0
E0
E0
ENDCHAR
STARTCHAR 006D
ENCODING 109
SWIDTH 864 0
DWIDTH 24 0
BBX 20 14 2 0
BITMAP
E78780
FFCFE0
F0F8E0
E0F070
E06070
E06070
E06070
E06070
E06070
E06070
E06070
E06070
E06070
E06070
ENDCHAR
STARTCHAR 006E
ENCODING 110
SWIDTH 576 0
DWIDTH 16 0
BBX 12 14 2 0
BITMAP
E780
FFC0
F9E0
F0E0
E070
E070
E070
E070
E070
E070
E070
E070
E070
E070
ENDCHAR
STARTCHAR 006F
ENCODING 111
SWIDTH 576 0
DWIDTH 16 0
BBX 14 14 1 0
BITMAP
0FC0
1FE0
3CF0
7038
6018
E01C
E01C
E01C
E01C
6018
7038
3CF0
1FE0
0FC0
ENDCHAR
STARTCHAR 0070
ENCODING 112
SWIDTH 576 0
DWIDTH 16 0
BBX 13 19 2 -5
BITMAP
E7C0
FFE0
FCF0
F078
E038
E018
E018
E018
E018
E038
F078
FCF0
FFE0
E7C0
E000
E000
E000
E000
E000
ENDCHAR
STARTCHAR 0071
ENCODING 113
SWIDTH 576 0
DWIDTH 16 0
BBX 13 19 1 -5
BITMAP
0F98
3FD8
3CF8
7078
E038
E038
E018
E018
E038
E038
7078
7CF8
3FD8
0F98
0018
0018
0018
0018
0018
ENDCHAR
STARTCHAR 0072
ENCODING 114
SWIDTH 360 0
DWIDTH 10 0
BBX 8 14 2 0
BITMAP
E7
EF
FF
F0
E0
E0
E0
E0
E0
E0
E0
E0
E0
E0
ENDCHAR
STARTCHAR 0073
ENCODING 115
SWIDTH 468 0
DWIDTH 13 0
BBX 10 14 1 0
BITMAP
1F00
3F80
73C0
E0C0
E000
7000
7F00
1F80
03C0
00C0
E0C0
F1C0
7F80
1F00
ENDCHAR
STARTCHAR 0074
ENCODING 116
SWIDTH 360 0
DWIDTH 10 0
BBX 8 18 1 0
BITMAP
38
38
38
38
FF
FF
38
38
38
38
38
38
38
38
38
3C
1F
0F
ENDCHAR
STARTCHAR 0075
ENCODING 117
SWIDTH 576 0
DWIDTH 16 0
BBX 12 14 2 0
BITMAP
E070
E070
E070
E070
E070
E070
E070
E070
E070
E070
E070
70F0
7FF0
1E70
ENDCHAR
STARTCHAR 0076
ENCODING 118
SWIDTH 504 0
DWIDTH 14 0
BBX 13 14 0 0
BITMAP
E018
7038
7038
3030
3870
3870
1C60
1CE0
0CC0
0FC0
0FC0
0780
0780
0780
ENDCHAR
STARTCHAR 0077
ENCODING 119
SWIDTH 792 0
DWIDTH 22 0
BBX 20 14 1 0
BITMAP
C07030
E0F070
E0F070
E0F870
71F860
7198E0
719CE0
339CC0
3B0DC0
3B0FC0
1F0F80
1E0780
1E0780
0E0700
ENDCHAR
STARTCHAR 0078
ENCODING 120
SWIDTH 504 0
DWIDTH 14 0
BBX 12 14 1 0
BITMAP
E070
F0E0
71C0
39C0
1F80
1F00
0F00
0F00
1F80
3B80
39C0
70E0
E0E0
E070
ENDCHAR
STARTCHAR 0079
ENCODING 121
SWIDTH 540 0
DWIDTH 15 0
BBX 14 19 0 -5
BITMAP
F01C
701C
7038
3838
3870
1C70
1C60
0EE0
0EC0
07C0
0780
0380
0380
0700
0700
0E00
0E00
1C00
1C00
ENDCHAR
STARTCHAR 007A
ENCODING 122
SWIDTH 468 0
DWIDTH 13 0
BBX 11 14 1 0
BITMAP
FFE0
FFE0
01E0
01C0
0380
0700
0E00
1E00
1C00
3800
7000
E000
FFE0
FFE0
ENDCHAR
STARTCHAR 007B
ENCODING 123
SWIDTH 360 0
DWIDTH 10 0
BBX 9 26 1 -4
BITMAP
0380
0F80
0E00
1C00
1C00
1C00
1C00
1C00
1C00
1C00
1C00
3800
F000
F000
7800
1800
1C00
1C00
1C00
1C00
1C00
1C00
1C00
0C00
0F80
0780
ENDCHAR
STARTCHAR 007C
ENCODING 124
SWIDTH 252 0
DWIDTH 7 0
BBX 2 26 3 -4
BITMAP
C0
C0
C0
C0
C0
C0
C0
C0
C0
C0
C0
C0
C0
C0
C0
C0
C0
C0
C0
C0
C0
C0
C0
C0
C0
C0
ENDCHAR
STARTCHAR 007D
ENCODING 125
SWIDTH 360 0
DWIDTH 10 0
BBX 9 26 0 -4
BITMAP
E000
F000
3800
1800
1C00
1C00
1C00
1C00
1C00
1C00
1C00
0E00
0F80
0780
0F00
1C00
1C00
1C00
1C00
1C00
1C00
1C00
1800
3800
F000
E000
ENDCHAR
STARTCHAR 007E
ENCODING 126
SWIDTH 576 0
DWIDTH 16 0
BBX 14 4 1 6
BITMAP
3E08
7FBC
F7F8
40F0
ENDCHAR
STARTCHAR 00A0
ENCODING 160
SWIDTH 252 0
DWIDTH 7 0
BBX 0 0 0 0
BITMAP
ENDCHAR
STARTCHAR 00A1
ENCODING 161
SWIDTH 288 0
DWIDTH 8 0
BBX 4 20 2 -6
BITMAP
60
F0
F0
60
00
00
60
60
60
60
60
60
60
60
E0
E0
E0
E0
E0
E0
ENDCHAR
STARTCHAR 00A2
ENCODING 162
SWIDTH 540 0
DWIDTH 15 0
BBX 12 18 1 0
BITMAP
0300
0300
0700
1FE0
3FF0
7370
7330
6300
E300
E300
6300
7330
7B70
3FF0
1FC0
0300
0300
0300
ENDCHAR
STARTCHAR 00A3
ENCODING 163
SWIDTH 576 0
DWIDTH 16 0
BBX 14 18 2 0
BITMAP
0F80
1FE0
3DF0
7070
7030
7000
7000
3800
FFC0
FFC0
1800
1800
1800
381C
701C
E078
FFF8
FFE0
ENDCHAR
STARTCHAR 00A4
ENCODING 164
SWIDTH 576 0
DWIDTH 16 0
BBX 14 14 1 0
BITMAP
4008
E7DC
7FF8
3CF0
3038
7038
7018
7018
7038
3838
3CF0
7FF8
E7DC
4008
ENDCHAR
STARTCHAR 00A5
ENCODING 165
SWIDTH 576 0
DWIDTH 16 0
BBX 14 18 1 0
BITMAP
E01C
703C
7038
3870
1C70
1CE0
0FC0
7FF8
7FF8
0380
0380
0380
7FF8
7FF8
0380
0380
0380
0380
ENDCHAR
STARTCHAR 00A6
ENCODING 166
SWIDTH 252 0
DWIDTH 7 0
BBX 2 26 3 -4
BITMAP
C0
C0
C0
C0
C0
C0
C0
C0
C0
C0
C0
00
00
00
00
C0
C0
C0
C0
C0
C0
C0
C0
C0
C0
C0
ENDCHAR
STARTCHAR 00A7
ENCODING 167
SWIDTH 576 0
DWIDTH 16 0
BBX 12 26 2 -6
BITMAP
0F80
3FC0
79E0
60E0
E070
E040
7000
7800
3E00
3F80
77C0
61E0
E0E0
6060
7860
3EE0
1FC0
07C0
01E0
00E0
2070
E070
6060
78E0
3FC0
1F00
ENDCHAR
STARTCHAR 00A8
ENCODING 168
SWIDTH 396 0
DWIDTH 11 0
BBX 8 3 1 16
BITMAP
E3
E7
E3
ENDCHAR
STARTCHAR 00A9
ENCODING 169
SWIDTH 828 0
DWIDTH 23 0
BBX 21 20 1 0
BITMAP
01FC00
07FF00
0F0780
1C01C0
38F8E0
71FC70
638E30
670630
E60030
C60038
C60038
E60030
670630
638E30
71FC60
38F8E0
1C01C0
0F0780
07FF00
01F800
ENDCHAR
STARTCHAR 00AA
ENCODING 170
SWIDTH 432 0
DWIDTH 12 0
BBX 8 10 2 8
BITMAP
3C
7E
C3
03
3F
FB
C3
C7
FF
7B
ENDCHAR
STARTCHAR 00AB
ENCODING 171
SWIDTH 468 0
DWIDTH 13 0
BBX 11 11 1 3
BITMAP
1C60
18E0
31C0
7180
6380
C700
E380
7180
31C0
38E0
1C60
ENDCHAR
STARTCHAR 00AC
ENCODING 172
SWIDTH 576 0
DWIDTH 16 0
BBX 13 8 1 4
BITMAP
FFF8
FFF8
0018
0018
0018
0018
0018
0018
ENDCHAR
STARTCHAR 00AD
ENCODING 173
SWIDTH 360 0
DWIDTH 10 0
BBX 8 2 1 7
BITMAP
FF
FF
ENDCHAR
STARTCHAR 00AE
ENCODING 174
SWIDTH 828 0
DWIDTH 23 0
BBX 21 20 1 0
BITMAP
01FC00
07FF00
0F0780
1C01C0
31F8E0
71FC70
618C30
618E30
E18C38
C1FC38
C1F838
E1B830
619830
619C70
718C60
3800E0
1C01C0
0F0780
07FF00
01F800
ENDCHAR
STARTCHAR 00AF
ENCODING 175
SWIDTH 360 0
DWIDTH 10 0
BBX 8 2 1 16
BITMAP
FF
FF
ENDCHAR
STARTCHAR 00B0
ENCODING 176
SWIDTH 360 0
DWIDTH 10 0
BBX 9 9 1 9
BITMAP
3C00
7F00
E700
C380
C380
C380
E700
7E00
3C00
ENDCHAR
STARTCHAR 00B1
ENCODING 177
SWIDTH 576 0
DWIDTH 16 0
BBX 12 13 2 2
BITMAP
0600
0600
0600
0600
FFF0
FFF0
0600
0600
0600
0600
0000
FFF0
FFF0
ENDCHAR
STARTCHAR 00B2
ENCODING 178
SWIDTH 396 0
DWIDTH 11 0
BBX 7 10 2 10
BITMAP
3C
FE
C6
C6
0E
3C
70
E0
FE
FE
ENDCHAR
STARTCHAR 00B3
ENCODING 179
SWIDTH 396 0
DWIDTH 11 0
BBX 8 11 2 9
BITMAP
FF
FF
0E
1C
3C
1E
07
43
C7
FE
3C
ENDCHAR
STARTCHAR 00B4
ENCODING 180
SWIDTH 288 0
DWIDTH 8 0
BBX 5 4 1 15
BITMAP
38
70
60
E0
ENDCHAR
STARTCHAR 00B5
ENCODING 181
SWIDTH 576 0
DWIDTH 16 0
BBX 12 19 2 -5
BITMAP
E070
E070
E070
E070
E070
E070
E070
E070
E070
E070
E070
F0F0
FFF0
FF70
E000
E000
E000
E000
E000
ENDCHAR
STARTCHAR 00B6
ENCODING 182
SWIDTH 612 0
DWIDTH 17 0
BBX 16 25 1 -5
BITMAP
0FFF
3FFF
7F18
FF18
FF18
FF18
FF18
FF18
7F18
3F18
0F18
0318
0318
0318
0318
0318
0318
0318
0318
0318
0318
0318
0318
0318
0318
ENDCHAR
STARTCHAR 00B7
ENCODING 183
SWIDTH 288 0
DWIDTH 8 0
BBX 4 4 2 6
BITMAP
60
F0
F0
60
ENDCHAR
STARTCHAR 00B8
ENCODING 184
SWIDTH 288 0
DWIDTH 8 0
BBX 6 6 1 -6
BITMAP
30
38
1C
0C
FC
78
ENDCHAR
STARTCHAR 00B9
ENCODING 185
SWIDTH 288 0
DWIDTH 8 0
BBX 5 10 1 10
BITMAP
18
38
F8
18
18
18
18
18
18
18
ENDCHAR
STARTCHAR 00BA
ENCODING 186
SWIDTH 468 0
DWIDTH 13 0
BBX 10 10 2 8
BITMAP
1E00
7F00
E380
C180
C1C0
C1C0
C180
6380
7F00
1E00
ENDCHAR
STARTCHAR 00BB
ENCODING 187
SWIDTH 468 0
DWIDTH 13 0
BBX 11 11 1 3
BITMAP
C700
6380
7180
31C0
38E0
1C60
18E0
31C0
7180
6380
C700
ENDCHAR
STARTCHAR 00BC
ENCODING 188
SWIDTH 792 0
DWIDTH 22 0
BBX 18 18 2 0
BITMAP
300600
700E00
F01C00
301800
303000
307000
306000
30C000
31C380
338780
030F80
061B80
0E3B80
1C3380
187FC0
387FC0
700380
600380
ENDCHAR
STARTCHAR 00BD
ENCODING 189
SWIDTH 792 0
DWIDTH 22 0
BBX 18 18 2 0
BITMAP
300600
700E00
F01C00
301800
303000
307000
30E000
30C000
31C780
338FC0
0318C0
0618C0
0E01C0
1C0380
180F00
381C00
701FC0
601FC0
ENDCHAR
STARTCHAR 00BE
ENCODING 190
SWIDTH 864 0
DWIDTH 24 0
BBX 20 18 2 0
BITMAP
FE01C0
FE0180
0C0300
380700
3E0E00
060C00
071800
C73800
FE30C0
7C61C0
00E3C0
01C6C0
018EC0
030CC0
071FF0
0E1FF0
0C00C0
1C00C0
ENDCHAR
STARTCHAR 00BF
ENCODING 191
SWIDTH 504 0
DWIDTH 14 0
BBX 12 20 1 -6
BITMAP
0600
0F00
0F00
0600
0000
0000
0600
0600
0E00
1E00
3C00
7800
E000
E070
C070
C070
E070
F0E0
7FC0
3F80
ENDCHAR
STARTCHAR 00C0
ENCODING 192
SWIDTH 684 0
DWIDTH 19 0
BBX 19 25 0 0
BITMAP
070000
038000
01C000
00E000
000000
00E000
00F000
01F000
01B800
03B800
039800
031C00
071C00
070E00
0E0E00
0E0E00
0C0700
1FFF00
1FFF80
3FFF80
380380
3801C0
7001C0
7000C0
E000E0
ENDCHAR
STARTCHAR 00C1
ENCODING 193
SWIDTH 684 0
DWIDTH 19 0
BBX 19 25 0 0
BITMAP
001C00
003800
007000
006000
000000
00E000
00F000
01F000
01B800
03B800
039800
031C00
071C00
070E00
0E0E00
0E0E00
0C0700
1FFF00
1FFF80
3FFF80
380380
3801C0
7001C0
7000C0
E000E0
ENDCHAR
STARTCHAR 00C2
ENCODING 194
SWIDTH 684 0
DWIDTH 19 0
BBX 19 25 0 0
BITMAP
01F000
01F000
03B800
071C00
000000
00E000
00F000
01F000
01B800
03B800
039800
031C00
071C00
070E00
0E0E00
0E0E00
0C0700
1FFF00
1FFF80
3FFF80
380380
3801C0
7001C0
7000C0
E000E0
ENDCHAR
STARTCHAR 00C3
ENCODING 195
SWIDTH 684 0
DWIDTH 19 0
BBX 19 25 0 0
BITMAP
038C00
03EC00
077C00
063800
000000
00E000
00F000
01F000
01B800
03B800
039800
031C00
071C00
070E00
0E0E00
0E0E00
0C0700
1FFF00
1FFF80
3FFF80
380380
3801C0
7001C0
7000C0
E000E0
ENDCHAR
STARTCHAR 00C4
ENCODING 196
SWIDTH 684 0
DWIDTH 19 0
BBX 19 25 0 0
BITMAP
060600
0E0E00
0E0E00
060600
000000
00E000
00F000
01F000
01B800
03B800
039800
031C00
071C00
070E00
0E0E00
0E0E00
0C0700
1FFF00
1FFF80
3FFF80
380380
3801C0
7001C0
7000C0
E000E0
ENDCHAR
STARTCHAR 00C5
ENCODING 197
SWIDTH 684 0
DWIDTH 19 0
BBX 19 25 0 0
BITMAP
00E000
01F000
039800
031800
039800
01F000
00F000
01F000
01B800
03B800
039800
031C00
071C00
070E00
0E0E00
0E0E00
0C0700
1FFF00
1FFF80
3FFF80
380380
3801C0
7001C0
7000C0
E000E0
ENDCHAR
STARTCHAR 00C6
ENCODING 198
SWIDTH 1044 0
DWIDTH 29 0
BBX 27 20 0 0
BITMAP
0007FFE0
000FFFE0
000FFFE0
001DC000
0039C000
0039C000
0071C000
00F1C000
00E1FFC0
01C1FFC0
03C1FFC0
0381C000
07FFC000
0FFFC000
0E01C000
1C01C000
3C01C000
3801FFE0
7801FFE0
F001FFE0
ENDCHAR
STARTCHAR 00C7
ENCODING 199
SWIDTH 756 0
DWIDTH 21 0
BBX 19 26 1 -6
BITMAP
01F800
07FE00
1FFF80
1C03C0
3801C0
7000E0
7000C0
600000
E00000
E00000
E00000
E00000
600000
7000C0
7000E0
3801C0
3C0380
1FFF80
07FE00
01F800
006000
00F000
003800
009800
01F800
002000
ENDCHAR
STARTCHAR 00C8
ENCODING 200
SWIDTH 576 0
DWIDTH 16 0
BBX 11 25 3 0
BITMAP
3800
1C00
0C00
0E00
0000
FFE0
FFE0
FFE0
C000
C000
C000
C000
C000
C000
FFE0
FFE0
FFE0
C000
C000
C000
C000
C000
FFE0
FFE0
FFE0
ENDCHAR
STARTCHAR 00C9
ENCODING 201
SWIDTH 576 0
DWIDTH 16 0
BBX 11 25 3 0
BITMAP
0380
0700
0700
0E00
0000
FFE0
FFE0
FFE0
C000
C000
C000
C000
C000
C000
FFE0
FFE0
FFE0
C000
C000
C000
C000
C000
FFE0
FFE0
FFE0
ENDCHAR
STARTCHAR 00CA
ENCODING 202
SWIDTH 576 0
DWIDTH 16 0
BBX 11 25 3 0
BITMAP
1E00
1F00
3B80
71C0
0000
FFE0
FFE0
FFE0
C000
C000
C000
C000
C000
C000
FFE0
FFE0
FFE0
C000
C000
C000
C000
C000
FFE0
FFE0
FFE0
ENDCHAR
STARTCHAR 00CB
ENCODING 203
SWIDTH 576 0
DWIDTH 16 0
BBX 11 25 3 0
BITMAP
60C0
71C0
71C0
60C0
0000
FFE0
FFE0
FFE0
C000
C000
C000
C000
C000
C000
FFE0
FFE0
FFE0
C000
C000
C000
C000
C000
FFE0
FFE0
FFE0
ENDCHAR
STARTCHAR 00CC
ENCODING 204
SWIDTH 288 0
DWIDTH 8 0
BBX 6 25 -1 0
BITMAP
F0
70
38
1C
00
1C
1C
1C
1C
1C
1C
1C
1C
1C
1C
1C
1C
1C
1C
1C
1C
1C
1C
1C
1C
ENDCHAR
STARTCHAR 00CD
ENCODING 205
SWIDTH 288 0
DWIDTH 8 0
BBX 6 25 3 0
BITMAP
3C
78
70
E0
00
C0
C0
C0
C0
C0
C0
C0
C0
C0
C0
C0
C0
C0
C0
C0
C0
C0
C0
C0
C0
ENDCHAR
STARTCHAR 00CE
ENCODING 206
SWIDTH 288 0
DWIDTH 8 0
BBX 9 25 0 0
BITMAP
3C00
7E00
E700
C380
0000
3800
3800
3800
3800
3800
3800
3800
3800
3800
3800
3800
3800
3800
3800
3800
3800
3800
3800
3800
3800
ENDCHAR
STARTCHAR 00CF
ENCODING 207
SWIDTH 288 0
DWIDTH 8 0
BBX 8 25 0 0
BITMAP
66
E7
66
00
00
38
38
38
38
38
38
38
38
38
38
38
38
38
38
38
38
38
38
38
38
ENDCHAR
STARTCHAR 00D0
ENCODING 208
SWIDTH 720 0
DWIDTH 20 0
BBX 18 20 1 0
BITMAP
3FF000
3FFC00
307E00
300F00
300780
300380
300380
3001C0
3001C0
FF01C0
FF01C0
3001C0
3001C0
300180
300380
300780
300F00
307E00
3FFC00
3FF000
ENDCHAR
STARTCHAR 00D1
ENCODING 209
SWIDTH 756 0
DWIDTH 21 0
BBX 16 25 3 0
BITMAP
0E30
0FB0
1DF0
18E0
0000
E007
F007
F807
F807
DC07
DE07
CE07
C707
C787
C387
C1C7
C1E7
C0E7
C077
C077
C03F
C01F
C01F
C00F
C007
ENDCHAR
STARTCHAR 00D2
ENCODING 210
SWIDTH 792 0
DWIDTH 22 0
BBX 20 24 1 0
BITMAP
038000
01C000
00E000
000000
01F800
07FF00
0FFF80
1C03C0
3801E0
7000E0
700070
600070
E00070
E00070
E00070
E00070
600070
700060
7000E0
3801E0
3C03C0
1FFF80
07FE00
01F800
ENDCHAR
STARTCHAR 00D3
ENCODING 211
SWIDTH 792 0
DWIDTH 22 0
BBX 20 24 1 0
BITMAP
001C00
003800
007000
000000
01F800
07FF00
0FFF80
1C03C0
3801E0
7000E0
700070
600070
E00070
E00070
E00070
E00070
600070
700060
7000E0
3801E0
3C03C0
1FFF80
07FE00
01F800
ENDCHAR
STARTCHAR 00D4
ENCODING 212
SWIDTH 792 0
DWIDTH 22 0
BBX 20 24 1 0
BITMAP
00F000
01F800
038C00
000000
01F800
07FF00
0FFF80
1C03C0
3801E0
7000E0
700070
600070
E00070
E00070
E00070
E00070
600070
700060
7000E0
3801E0
3C03C0
1FFF80
07FE00
01F800
ENDCHAR
STARTCHAR 00D5
ENCODING 213
SWIDTH 792 0
DWIDTH 22 0
BBX 20 24 1 0
BITMAP
01E600
03FE00
033C00
000000
01F800
07FF00
0FFF80
1C03C0
3801E0
7000E0
700070
600070
E00070
E00070
E00070
E00070
600070
700060
7000E0
3801E0
3C03C0
1FFF80
07FE00
01F800
ENDCHAR
STARTCHAR 00D6
ENCODING 214
SWIDTH 792 0
DWIDTH 22 0
BBX 20 24 1 0
BITMAP
060700
0E0700
060700
000000
01F800
07FF00
0FFF80
1C03C0
3801E0
7000E0
700070
600070
E00070
E00070
E00070
E00070
600070
700060
7000E0
3801E0
3C03C0
1FFF80
07FE00
01F800
ENDCHAR
STARTCHAR 00D7
ENCODING 215
SWIDTH 540 0
DWIDTH 15 0
BBX 13 12 1 2
BITMAP
4030
E078
70E0
39C0
1F80
0F00
0F00
1F80
39E0
70F0
E078
4010
ENDCHAR
STARTCHAR 00D8
ENCODING 216
SWIDTH 792 0
DWIDTH 22 0
BBX 20 22 1 -1
BITMAP
000040
01F8E0
07FFC0
0FFFC0
1C03C0
3807E0
700EE0
700E70
601C70
E03870
E07070
E0E070
E1C070
61C070
738060
7700E0
3E01E0
3C03C0
1FFF80
3FFE00
71F800
200000
ENDCHAR
STARTCHAR 00D9
ENCODING 217
SWIDTH 684 0
DWIDTH 19 0
BBX 14 25 2 0
BITMAP
1E00
0E00
0700
0380
0000
E00C
E00C
E00C
E00C
E00C
E00C
E00C
E00C
E00C
E00C
E00C
E00C
E00C
E00C
E01C
701C
703C
3FF8
1FF0
0FC0
ENDCHAR
STARTCHAR 00DA
ENCODING 218
SWIDTH 684 0
DWIDTH 19 0
BBX 14 25 2 0
BITMAP
00E0
01C0
0380
0300
0000
E00C
E00C
E00C
E00C
E00C
E00C
E00C
E00C
E00C
E00C
E00C
E00C
E00C
E00C
E01C
701C
703C
3FF8
1FF0
0FC0
ENDCHAR
STARTCHAR 00DB
ENCODING 219
SWIDTH 684 0
DWIDTH 19 0
BBX 14 25 2 0
BITMAP
0780
0FC0
0EE0
1C70
0000
E00C
E00C
E00C
E00C
E00C
E00C
E00C
E00C
E00C
E00C
E00C
E00C
E00C
E00C
E01C
701C
703C
3FF8
1FF0
0FC0
ENDCHAR
STARTCHAR 00DC
ENCODING 220
SWIDTH 684 0
DWIDTH 19 0
BBX 14 25 2 0
BITMAP
1860
1C70
1C70
1860
0000
E00C
E00C
E00C
E00C
E00C
E00C
E00C
E00C
E00C
E00C
E00C
E00C
E00C
E00C
E01C
701C
703C
3FF8
1FF0
0FC0
ENDCHAR
STARTCHAR 00DD
ENCODING 221
SWIDTH 612 0
DWIDTH 17 0
BBX 16 25 1 0
BITMAP
00F0
01E0
01C0
0380
0000
E00F
E00E
701C
781C
3838
1C38
1C70
0EE0
0EE0
07C0
03C0
0380
0380
0380
0380
0380
0380
0380
0380
0380
ENDCHAR
STARTCHAR 00DE
ENCODING 222
SWIDTH 576 0
DWIDTH 16 0
BBX 13 20 3 0
BITMAP
C000
C000
C000
C000
FF80
FFE0
C1F0
C070
C038
C038
C038
C030
C0F0
FFE0
FFC0
C000
C000
C000
C000
C000
ENDCHAR
STARTCHAR 00DF
ENCODING 223
SWIDTH 576 0
DWIDTH 16 0
BBX 13 20 2 0
BITMAP
0F80
3FE0
79E0
7070
E070
E070
E070
E1E0
E3C0
E700
E700
E780
E3E0
E1F0
E078
E038
EE38
EE38
E7F0
E3E0
ENDCHAR
STARTCHAR 00E0
ENCODING 224
SWIDTH 540 0
DWIDTH 15 0
BBX 12 19 1 0
BITMAP
3C00
1C00
0E00
0600
0000
0F80
3FC0
78E0
7070
6070
00F0
0FF0
3F70
7070
E070
E0F0
71F0
7FF0
1E70
ENDCHAR
STARTCHAR 00E1
ENCODING 225
SWIDTH 540 0
DWIDTH 15 0
BBX 12 19 1 0
BITMAP
01C0
0180
0380
0700
0000
0F80
3FC0
78E0
7070
6070
00F0
0FF0
3F70
7070
E070
E0F0
71F0
7FF0
1E70
ENDCHAR
STARTCHAR 00E2
ENCODING 226
SWIDTH 540 0
DWIDTH 15 0
BBX 12 19 1 0
BITMAP
0700
0F80
1DC0
38C0
0000
0F80
3FC0
78E0
7070
6070
00F0
0FF0
3F70
7070
E070
E0F0
71F0
7FF0
1E70
ENDCHAR
STARTCHAR 00E3
ENCODING 227
SWIDTH 540 0
DWIDTH 15 0
BBX 12 19 1 0
BITMAP
1E60
3FE0
33C0
0000
0000
0F80
3FC0
78E0
7070
6070
00F0
0FF0
3F70
7070
E070
E0F0
71F0
7FF0
1E70
ENDCHAR
STARTCHAR 00E4
ENCODING 228
SWIDTH 540 0
DWIDTH 15 0
BBX 12 19 1 0
BITMAP
38C0
39C0
38C0
0000
0000
0F80
3FC0
78E0
7070
6070
00F0
0FF0
3F70
7070
E070
E0F0
71F0
7FF0
1E70
ENDCHAR
STARTCHAR 00E5
ENCODING 229
SWIDTH 540 0
DWIDTH 15 0
BBX 12 21 1 0
BITMAP
0700
0F80
1980
1980
0F80
0700
0000
0F80
3FC0
78E0
7070
6070
00F0
0FF0
3F70
7070
E070
E0F0
71F0
7FF0
1E70
ENDCHAR
STARTCHAR 00E6
ENCODING 230
SWIDTH 864 0
DWIDTH 24 0
BBX 22 14 1 0
BITMAP
0F87E0
3FEFF0
78FE78
70781C
60781C
00701C
0FFFFC
3FFFFC
707000
E07008
E0781C
71DE38
7F8FF0
1F07E0
ENDCHAR
STARTCHAR 00E7
ENCODING 231
SWIDTH 540 0
DWIDTH 15 0
BBX 13 20 1 -6
BITMAP
0FC0
1FE0
3DF0
7078
6030
E000
E000
E000
E000
E000
7038
7870
3FF0
1FE0
0700
0600
07C0
00C0
0FC0
0780
ENDCHAR
STARTCHAR 00E8
ENCODING 232
SWIDTH 540 0
DWIDTH 15 0
BBX 13 19 1 0
BITMAP
1C00
0E00
0600
0700
0000
0F80
1FE0
3CF0
7070
6038
E038
FFF8
FFF8
E000
E000
7038
3CF0
3FE0
0F80
ENDCHAR
STARTCHAR 00E9
ENCODING 233
SWIDTH 540 0
DWIDTH 15 0
BBX 13 19 1 0
BITMAP
01E0
01C0
0380
0300
0000
0F80
1FE0
3CF0
7070
6038
E038
FFF8
FFF8
E000
E000
7038
3CF0
3FE0
0F80
ENDCHAR
STARTCHAR 00EA
ENCODING 234
SWIDTH 540 0
DWIDTH 15 0
BBX 13 19 1 0
BITMAP
0780
0F80
1DC0
18E0
0000
0F80
1FE0
3CF0
7070
6038
E038
FFF8
FFF8
E000
E000
7038
3CF0
3FE0
0F80
ENDCHAR
STARTCHAR 00EB
ENCODING 235
SWIDTH 540 0
DWIDTH 15 0
BBX 13 19 1 0
BITMAP
18E0
3CE0
18C0
0000
0000
0F80
1FE0
3CF0
7070
6038
E038
FFF8
FFF8
E000
E000
7038
3CF0
3FE0
0F80
ENDCHAR
STARTCHAR 00EC
ENCODING 236
SWIDTH 252 0
DWIDTH 7 0
BBX 5 20 0 0
BITMAP
E0
E0
70
30
00
00
38
38
38
38
38
38
38
38
38
38
38
38
38
38
ENDCHAR
STARTCHAR 00ED
ENCODING 237
SWIDTH 252 0
DWIDTH 7 0
BBX 6 20 2 0
BITMAP
3C
38
70
60
00
00
E0
E0
E0
E0
E0
E0
E0
E0
E0
E0
E0
E0
E0
E0
ENDCHAR
STARTCHAR 00EE
ENCODING 238
SWIDTH 252 0
DWIDTH 7 0
BBX 8 20 0 0
BITMAP
38
7C
EE
C7
00
00
38
38
38
38
38
38
38
38
38
38
38
38
38
38
ENDCHAR
STARTCHAR 00EF
ENCODING 239
SWIDTH 252 0
DWIDTH 7 0
BBX 7 19 0 0
BITMAP
EE
EE
EE
00
00
38
38
38
38
38
38
38
38
38
38
38
38
38
38
ENDCHAR
STARTCHAR 00F0
ENCODING 240
SWIDTH 576 0
DWIDTH 16 0
BBX 14 20 1 0
BITMAP
1800
1E70
0FF0
07C0
1FE0
0C70
0070
0FB8
3FF8
78F8
703C
E01C
E01C
E01C
E01C
E018
7038
7CF0
3FE0
0F80
ENDCHAR
STARTCHAR 00F1
ENCODING 241
SWIDTH 576 0
DWIDTH 16 0
BBX 12 20 2 0
BITMAP
1C00
3EE0
3FC0
33C0
0000
0000
E780
FFC0
F9E0
F0E0
E070
E070
E070
E070
E070
E070
E070
E070
E070
E070
ENDCHAR
STARTCHAR 00F2
ENCODING 242
SWIDTH 576 0
DWIDTH 16 0
BBX 14 19 1 0
BITMAP
1C00
0E00
0600
0300
0000
0FC0
1FE0
3CF0
7038
6018
E01C
E01C
E01C
E01C
6018
7038
3CF0
1FE0
0FC0
ENDCHAR
STARTCHAR 00F3
ENCODING 243
SWIDTH 576 0
DWIDTH 16 0
BBX 14 19 1 0
BITMAP
01E0
01C0
0380
0300
0000
0FC0
1FE0
3CF0
7038
6018
E01C
E01C
E01C
E01C
6018
7038
3CF0
1FE0
0FC0
ENDCHAR
STARTCHAR 00F4
ENCODING 244
SWIDTH 576 0
DWIDTH 16 0
BBX 14 19 1 0
BITMAP
0780
0FC0
0CC0
18E0
0000
0FC0
1FE0
3CF0
7038
6018
E01C
E01C
E01C
E01C
6018
7038
3CF0
1FE0
0FC0
ENDCHAR
STARTCHAR 00F5
ENCODING 245
SWIDTH 576 0
DWIDTH 16 0
BBX 14 19 1 0
BITMAP
0E60
1FE0
19C0
0000
0000
0FC0
1FE0
3CF0
7038
6018
E01C
E01C
E01C
E01C
6018
7038
3CF0
1FE0
0FC0
ENDCHAR
STARTCHAR 00F6
ENCODING 246
SWIDTH 576 0
DWIDTH 16 0
BBX 14 19 1 0
BITMAP
1CE0
1CE0
1CE0
0000
0000
0FC0
1FE0
3CF0
7038
6018
E01C
E01C
E01C
E01C
6018
7038
3CF0
1FE0
0FC0
ENDCHAR
STARTCHAR 00F7
ENCODING 247
SWIDTH 576 0
DWIDTH 16 0
BBX 12 14 2 1
BITMAP
0600
0F00
0F00
0600
0000
0000
FFF0
FFF0
0000
0000
0600
0F00
0F00
0600
ENDCHAR
STARTCHAR 00F8
ENCODING 248
SWIDTH 576 0
DWIDTH 16 0
BBX 14 16 1 -1
BITMAP
0010
0FD8
1FF8
3CF0
70F8
60D8
E19C
E39C
E71C
EE1C
6C18
7C38
3CF0
7FE0
6FC0
2000
ENDCHAR
STARTCHAR 00F9
ENCODING 249
SWIDTH 576 0
DWIDTH 16 0
BBX 12 20 2 0
BITMAP
3800
1C00
0C00
0600
0000
0000
E070
E070
E070
E070
E070
E070
E070
E070
E070
E070
E070
70F0
7FF0
1E70
ENDCHAR
STARTCHAR 00FA
ENCODING 250
SWIDTH 576 0
DWIDTH 16 0
BBX 12 20 2 0
BITMAP
0380
0300
0700
0E00
0000
0000
E070
E070
E070
E070
E070
E070
E070
E070
E070
E070
E070
70F0
7FF0
1E70
ENDCHAR
STARTCHAR 00FB
ENCODING 251
SWIDTH 576 0
DWIDTH 16 0
BBX 12 20 2 0
BITMAP
0F00
1F00
3B80
31C0
0000
0000
E070
E070
E070
E070
E070
E070
E070
E070
E070
E070
E070
70F0
7FF0
1E70
ENDCHAR
STARTCHAR 00FC
ENCODING 252
SWIDTH 576 0
DWIDTH 16 0
BBX 12 20 2 0
BITMAP
3180
39C0
39C0
3180
0000
0000
E070
E070
E070
E070
E070
E070
E070
E070
E070
E070
E070
70F0
7FF0
1E70
ENDCHAR
STARTCHAR 00FD
ENCODING 253
SWIDTH 540 0
DWIDTH 15 0
BBX 14 25 0 -5
BITMAP
00E0
01C0
0180
0300
0000
0000
F01C
701C
7038
3838
3870
1C70
1C60
0EE0
0EC0
07C0
0780
0380
0380
0700
0700
0E00
0E00
1C00
1C00
ENDCHAR
STARTCHAR 00FE
ENCODING 254
SWIDTH 576 0
DWIDTH 16 0
BBX 13 25 2 -5
BITMAP
E000
E000
E000
E000
E000
E000
E7C0
FFE0
FCF0
F078
E038
E018
E018
E018
E018
E038
F038
FCF0
FFE0
E7C0
E000
E000
E000
E000
E000
ENDCHAR
STARTCHAR 00FF
ENCODING 255
SWIDTH 540 0
DWIDTH 15 0
BBX 14 25 0 -5
BITMAP
0C60
1CE0
1CE0
0C60
0000
0000
F01C
701C
7038
3838
3870
1C70
1C60
0EE0
0EC0
07C0
0780
0380
0380
0700
0700
0E00
0E00
1C00
1C00
ENDCHAR
STARTCHAR 0131
ENCODING 305
SWIDTH 252 0
DWIDTH 7 0
BBX 3 14 2 0
BITMAP
E0
E0
E0
E0
E0
E0
E0
E0
E0
E0
E0
E0
E0
E0
ENDCHAR
STARTCHAR 0141
ENCODING 321
SWIDTH 576 0
DWIDTH 16 0
BBX 15 20 0 0
BITMAP
1C00
1C00
1C00
1C00
1C00
1C00
1C40
1DC0
1FC0
1F00
FC00
FC00
9C00
1C00
1C00
1C00
1C00
1FFE
1FFE
1FFE
ENDCHAR
STARTCHAR 0142
ENCODING 322
SWIDTH 288 0
DWIDTH 8 0
BBX 8 20 0 0
BITMAP
18
18
18
18
18
18
18
18
1B
1F
3E
F8
F8
18
18
18
18
18
18
18
ENDCHAR
STARTCHAR 0152
ENCODING 338
SWIDTH 1152 0
DWIDTH 32 0
BBX 29 20 1 0
BITMAP
01F87FF8
07FF7FF8
1F0FFFF8
3C03F000
3800F000
7000F000
70007000
E0007000
E0007FF0
E0007FF0
E0007FF0
E0007000
60007000
70007000
7000F000
3801F000
1C03F000
0F07FFF8
07FE7FF8
01F87FF8
ENDCHAR
STARTCHAR 0153
ENCODING 339
SWIDTH 936 0
DWIDTH 26 0
BBX 24 14 1 0
BITMAP
0FC1F0
1FE3FC
3CF79E
703E0E
603C07
E01C07
E01FFF
E01FFF
E01C00
E01C04
703E07
3CF79E
3FE7FC
0FC1F0
ENDCHAR
STARTCHAR 0160
ENCODING 352
SWIDTH 576 0
DWIDTH 16 0
BBX 14 24 1 0
BITMAP
1C70
0EE0
07C0
0000
07C0
1FF0
3EF8
783C
701C
7000
7000
7800
3E00
1FE0
0FF8
00F8
001C
201C
E01C
E01C
701C
7EF8
3FF0
0FC0
ENDCHAR
STARTCHAR 0161
ENCODING 353
SWIDTH 468 0
DWIDTH 13 0
BBX 10 19 1 0
BITMAP
7180
3B80
1F00
1E00
0000
1F00
3F80
73C0
E0C0
E000
7000
7F00
1F80
03C0
00C0
E0C0
F1C0
7F80
1F00
ENDCHAR
STARTCHAR 0178
ENCODING 376
SWIDTH 612 0
DWIDTH 17 0
BBX 16 25 1 0
BITMAP
1830
1C70
1C70
1830
0000
E00F
E00E
701C
781C
3838
1C38
1C70
0EE0
0EE0
07C0
03C0
0380
0380
0380
0380
0380
0380
0380
0380
0380
ENDCHAR
STARTCHAR 017D
ENCODING 381
SWIDTH 648 0
DWIDTH 18 0
BBX 15 25 1 0
BITMAP
0C30
0E70
07E0
03C0
0000
7FFE
7FFE
7FFE
001E
003C
0038
0070
00E0
01E0
03C0
0380
0700
0E00
1E00
3C00
3800
7000
FFFE
FFFE
FFFE
ENDCHAR
STARTCHAR 017E
ENCODING 382
SWIDTH 468 0
DWIDTH 13 0
BBX 11 20 1 0
BITMAP
31C0
3B80
1F00
0E00
0000
0000
FFE0
FFE0
01E0
01C0
0380
0700
0E00
1E00
1C00
3800
7000
E000
FFE0
FFE0
ENDCHAR
STARTCHAR 0192
ENCODING 402
SWIDTH 468 0
DWIDTH 13 0
BBX 14 25 -1 -4
BITMAP
003C
007C
00F0
00E0
01C0
01C0
01C0
1FF8
1FF8
0380
0380
0380
0380
0300
0700
0700
0700
0700
0600
0600
0E00
0E00
1E00
FC00
F800
ENDCHAR
STARTCHAR 02C6
ENCODING 710
SWIDTH 396 0
DWIDTH 11 0
BBX 8 4 1 15
BITMAP
3C
3E
77
E3
ENDCHAR
STARTCHAR 02C7
ENCODING 711
SWIDTH 396 0
DWIDTH 11 0
BBX 8 4 1 15
BITMAP
E3
77
3E
3C
ENDCHAR
STARTCHAR 02C9
ENCODING 713
SWIDTH 360 0
DWIDTH 10 0
BBX 8 2 1 16
BITMAP
FF
FF
ENDCHAR
STARTCHAR 02D8
ENCODING 728
SWIDTH 360 0
DWIDTH 10 0
BBX 8 4 1 15
BITMAP
C3
E7
7E
3C
ENDCHAR
STARTCHAR 02D9
ENCODING 729
SWIDTH 180 0
DWIDTH 5 0
BBX 3 4 1 15
BITMAP
E0
E0
E0
E0
ENDCHAR
STARTCHAR 02DA
ENCODING 730
SWIDTH 288 0
DWIDTH 8 0
BBX 6 6 1 15
BITMAP
78
FC
CC
CC
FC
78
ENDCHAR
STARTCHAR 02DB
ENCODING 731
SWIDTH 216 0
DWIDTH 6 0
BBX 5 6 1 -6
BITMAP
30
60
C0
C0
F8
78
ENDCHAR
STARTCHAR 02DC
ENCODING 732
SWIDTH 360 0
DWIDTH 10 0
BBX 9 4 1 15
BITMAP
7180
FF80
DF00
0600
ENDCHAR
STARTCHAR 02DD
ENCODING 733
SWIDTH 360 0
DWIDTH 10 0
BBX 8 4 1 15
BITMAP
77
66
EC
CC
ENDCHAR
STARTCHAR 0394
ENCODING 916
SWIDTH 648 0
DWIDTH 18 0
BBX 18 20 0 0
BITMAP
00E000
01E000
01F000
03F000
03B000
033800
073800
071C00
0E1C00
0E1C00
0C0E00
1C0E00
1C0700
180700
380700
380380
700380
700380
7FFFC0
FFFFC0
ENDCHAR
STARTCHAR 03A9
ENCODING 937
SWIDTH 792 0
DWIDTH 22 0
BBX 20 20 1 0
BITMAP
01F800
07FF00
1FFF80
3C03C0
3801E0
7000E0
700070
E00070
E00070
E00070
E00070
600070
7000E0
7000E0
3801C0
1E0780
0F9F00
039C00
FF9FF0
FF9FF0
ENDCHAR
STARTCHAR 03BC
ENCODING 956
SWIDTH 576 0
DWIDTH 16 0
BBX 12 19 2 -5
BITMAP
E070
E070
E070
E070
E070
E070
E070
E070
E070
E070
E070
F0F0
FFF0
FF70
E000
E000
E000
E000
E000
ENDCHAR
STARTCHAR 03C0
ENCODING 960
SWIDTH 612 0
DWIDTH 17 0
BBX 15 14 1 0
BITMAP
FFFE
FFFE
1830
1830
1830
1830
1830
1830
1830
1830
1830
1838
183E
181E
ENDCHAR
STARTCHAR 2007
ENCODING 8199
SWIDTH 612 0
DWIDTH 17 0
BBX 0 0 0 0
BITMAP
ENDCHAR
STARTCHAR 2008
ENCODING 8200
SWIDTH 288 0
DWIDTH 8 0
BBX 0 0 0 0
BITMAP
ENDCHAR
STARTCHAR 200B
ENCODING 8203
SWIDTH 0 0
DWIDTH 0 0
BBX 0 0 0 0
BITMAP
ENDCHAR
STARTCHAR 2013
ENCODING 8211
SWIDTH 648 0
DWIDTH 18 0
BBX 14 2 2 7
BITMAP
FFFC
FFFC
ENDCHAR
STARTCHAR 2014
ENCODING 8212
SWIDTH 1116 0
DWIDTH 31 0
BBX 27 2 2 7
BITMAP
FFFFFFE0
FFFFFFE0
ENDCHAR
STARTCHAR 2018
ENCODING 8216
SWIDTH 216 0
DWIDTH 6 0
BBX 4 7 1 13
BITMAP
30
60
40
C0
F0
F0
60
ENDCHAR
STARTCHAR 2019
ENCODING 8217
SWIDTH 216 0
DWIDTH 6 0
BBX 4 8 1 12
BITMAP
60
F0
F0
70
30
30
E0
C0
ENDCHAR
STARTCHAR 201A
ENCODING 8218
SWIDTH 216 0
DWIDTH 6 0
BBX 4 7 1 -4
BITMAP
60
F0
70
30
30
60
C0
ENDCHAR
STARTCHAR 201C
ENCODING 8220
SWIDTH 396 0
DWIDTH 11 0
BBX 9 7 1 13
BITMAP
3180
6300
4600
C600
F700
F780
6300
ENDCHAR
STARTCHAR 201D
ENCODING 8221
SWIDTH 396 0
DWIDTH 11 0
BBX 9 7 1 13
BITMAP
6700
F780
F780
3180
3100
6300
C400
ENDCHAR
STARTCHAR 201E
ENCODING 8222
SWIDTH 396 0
DWIDTH 11 0
BBX 9 7 1 -4
BITMAP
6700
F780
7780
3180
2100
6700
C400
ENDCHAR
STARTCHAR 2020
ENCODING 8224
SWIDTH 396 0
DWIDTH 11 0
BBX 9 15 1 5
BITMAP
1C00
1C00
1C00
1C00
FF80
FF80
1C00
1C00
1C00
1C00
1C00
1C00
1C00
1C00
1C00
ENDCHAR
STARTCHAR 2021
ENCODING 8225
SWIDTH 432 0
DWIDTH 12 0
BBX 10 20 1 0
BITMAP
0C00
0C00
0C00
0C00
FFC0
FFC0
0C00
0C00
0C00
0C00
0C00
0C00
0C00
0C00
FFC0
FFC0
0C00
0C00
0C00
0C00
ENDCHAR
STARTCHAR 2022
ENCODING 8226
SWIDTH 540 0
DWIDTH 15 0
BBX 11 12 2 2
BITMAP
1F00
3FC0
7FC0
7FE0
FFE0
FFE0
FFE0
FFE0
FFE0
7FC0
3F80
1F00
ENDCHAR
STARTCHAR 2026
ENCODING 8230
SWIDTH 936 0
DWIDTH 26 0
BBX 20 3 3 0
BITMAP
E06070
E0F070
E06070
ENDCHAR
STARTCHAR 2030
ENCODING 8240
SWIDTH 1044 0
DWIDTH 29 0
BBX 26 18 2 0
BITMAP
3C038000
7E030000
E7060000
C30E0000
C31C0000
E7180000
FF380000
3C700000
00600000
00C00000
01C79F00
039FFF80
031CF1C0
071870C0
0E1870C0
0C1CF1C0
180FFF80
38078F00
ENDCHAR
STARTCHAR 2039
ENCODING 8249
SWIDTH 288 0
DWIDTH 8 0
BBX 6 11 1 3
BITMAP
1C
18
30
70
60
C0
E0
70
30
38
1C
ENDCHAR
STARTCHAR 203A
ENCODING 8250
SWIDTH 288 0
DWIDTH 8 0
BBX 6 11 1 3
BITMAP
C0
60
70
30
38
1C
18
30
70
60
C0
ENDCHAR
STARTCHAR 2042
ENCODING 8258
SWIDTH 828 0
DWIDTH 23 0
BBX 21 20 1 0
BITMAP
003000
003000
023200
03FE00
01FC00
007000
00D800
01CC00
008800
000000
000000
0C00C0
0C00C0
8C88C8
FF8FF8
7F07F0
1C01C0
360360
730730
220220
ENDCHAR
STARTCHAR 2044
ENCODING 8260
SWIDTH 540 0
DWIDTH 15 0
BBX 15 18 0 0
BITMAP
0006
000C
001C
0038
0030
0070
00E0
00C0
0180
0380
0700
0600
0C00
1C00
1800
3000
7000
E000
ENDCHAR
STARTCHAR 2051
ENCODING 8273
SWIDTH 432 0
DWIDTH 12 0
BBX 9 20 1 0
BITMAP
0C00
0C00
0C80
FF80
7F80
1E00
3E00
3300
2100
0000
0000
0C00
0C00
0C80
FF80
7F80
1E00
3E00
3300
2100
ENDCHAR
STARTCHAR 2070
ENCODING 8304
SWIDTH 432 0
DWIDTH 12 0
BBX 8 11 2 9
BITMAP
3C
7E
E7
C3
C3
C3
C3
C3
E7
7E
38
ENDCHAR
STARTCHAR 2074
ENCODING 8308
SWIDTH 432 0
DWIDTH 12 0
BBX 9 10 2 10
BITMAP
0E00
1E00
3E00
3600
6600
C600
FF80
FF80
0600
0600
ENDCHAR
STARTCHAR 2075
ENCODING 8309
SWIDTH 396 0
DWIDTH 11 0
BBX 8 11 2 9
BITMAP
7E
7E
60
D8
FE
46
07
47
C6
FE
38
ENDCHAR
STARTCHAR 2076
ENCODING 8310
SWIDTH 432 0
DWIDTH 12 0
BBX 8 11 2 9
BITMAP
1E
7E
60
DC
FE
E7
C3
C3
E7
7E
3C
ENDCHAR
STARTCHAR 2077
ENCODING 8311
SWIDTH 432 0
DWIDTH 12 0
BBX 8 10 2 10
BITMAP
FF
FF
06
0C
18
18
30
30
30
70
ENDCHAR
STARTCHAR 2078
ENCODING 8312
SWIDTH 396 0
DWIDTH 11 0
BBX 8 11 2 9
BITMAP
3C
FE
C6
C6
7E
7C
C6
C3
C7
FE
3C
ENDCHAR
STARTCHAR 2079
ENCODING 8313
SWIDTH 432 0
DWIDTH 12 0
BBX 8 11 2 9
BITMAP
3C
FE
C7
C3
C7
FF
7B
06
0E
FC
70
ENDCHAR
STARTCHAR 2080
ENCODING 8320
SWIDTH 432 0
DWIDTH 12 0
BBX 8 10 2 -2
BITMAP
3C
7E
C7
C3
C3
C3
C3
C7
7E
3C
ENDCHAR
STARTCHAR 2081
ENCODING 8321
SWIDTH 288 0
DWIDTH 8 0
BBX 5 10 1 -2
BITMAP
18
78
F8
18
18
18
18
18
18
18
ENDCHAR
STARTCHAR 2082
ENCODING 8322
SWIDTH 396 0
DWIDTH 11 0
BBX 7 10 2 -2
BITMAP
3C
FE
C6
C6
0E
3C
70
E0
FE
FE
ENDCHAR
STARTCHAR 2083
ENCODING 8323
SWIDTH 396 0
DWIDTH 11 0
BBX 8 10 2 -2
BITMAP
FF
FF
0E
18
3E
07
03
C7
FE
7C
ENDCHAR
STARTCHAR 2084
ENCODING 8324
SWIDTH 432 0
DWIDTH 12 0
BBX 9 10 2 -2
BITMAP
0E00
1E00
1E00
3600
6600
C600
FF80
FF80
0600
0600
ENDCHAR
STARTCHAR 2085
ENCODING 8325
SWIDTH 396 0
DWIDTH 11 0
BBX 8 10 2 -2
BITMAP
7E
7E
60
D8
FE
46
07
C6
FE
7C
ENDCHAR
STARTCHAR 2086
ENCODING 8326
SWIDTH 432 0
DWIDTH 12 0
BBX 8 10 2 -2
BITMAP
1E
7E
E0
DC
FE
C7
C3
C7
7E
3C
ENDCHAR
STARTCHAR 2087
ENCODING 8327
SWIDTH 432 0
DWIDTH 12 0
BBX 8 10 2 -2
BITMAP
FF
FF
06
0C
18
18
30
30
30
70
ENDCHAR
STARTCHAR 2088
ENCODING 8328
SWIDTH 396 0
DWIDTH 11 0
BBX 8 10 2 -2
BITMAP
3C
FE
C6
C6
7C
FE
C7
C7
FE
7C
ENDCHAR
STARTCHAR 2089
ENCODING 8329
SWIDTH 432 0
DWIDTH 12 0
BBX 8 10 2 -2
BITMAP
3C
FE
C7
C3
C7
FF
33
06
FC
F8
ENDCHAR
STARTCHAR 20AC
ENCODING 8364
SWIDTH 684 0
DWIDTH 19 0
BBX 16 18 2 0
BITMAP
00FC
03FF
07CE
0E00
1C00
1800
FFF8
FFF8
3800
3800
FFE0
FFE0
1800
1C00
0E00
07CF
03FF
00FC
ENDCHAR
STARTCHAR 2113
ENCODING 8467
SWIDTH 396 0
DWIDTH 11 0
BBX 9 18 1 0
BITMAP
0F00
1F80
3B80
3980
3180
3180
3380
3300
3700
3E00
7C00
F800
F000
3000
3800
3D80
1F80
0F00
ENDCHAR
STARTCHAR 2122
ENCODING 8482
SWIDTH 864 0
DWIDTH 24 0
BBX 21 10 1 10
BITMAP
FF3838
FF3838
183C38
183C78
183E78
1836D8
1836D8
183398
183398
183198
ENDCHAR
STARTCHAR 2126
ENCODING 8486
SWIDTH 792 0
DWIDTH 22 0
BBX 20 20 1 0
BITMAP
01F800
07FF00
1FFF80
3C03C0
3801E0
7000E0
700070
E00070
E00070
E00070
E00070
600070
7000E0
7000E0
3801C0
1E0780
0F9F00
039C00
FF9FF0
FF9FF0
ENDCHAR
STARTCHAR 2160
ENCODING 8544
SWIDTH 504 0
DWIDTH 14 0
BBX 11 18 2 0
BITMAP
FFE0
FFE0
0C00
0C00
0C00
0C00
0C00
0C00
0C00
0C00
0C00
0C00
0C00
0C00
0C00
0C00
FFE0
FFE0
ENDCHAR
STARTCHAR 2161
ENCODING 8545
SWIDTH 756 0
DWIDTH 21 0
BBX 18 18 2 0
BITMAP
FFFFC0
FFFFC0
1C1C00
1C1C00
1C1C00
1C1C00
1C1C00
1C1C00
1C1C00
1C1C00
1C1C00
1C1C00
1C1C00
1C1C00
1C1C00
1C1C00
FFFFC0
FFFFC0
ENDCHAR
STARTCHAR 2162
ENCODING 8546
SWIDTH 1044 0
DWIDTH 29 0
BBX 25 18 2 0
BITMAP
FFFFFF80
FFFFFF80
1C1C1C00
1C1C1C00
1C1C1C00
1C1C1C00
1C1C1C00
1C1C1C00
1C1C1C00
1C1C1C00
1C1C1C00
1C1C1C00
1C1C1C00
1C1C1C00
1C1C1C00
1C1C1C00
FFFFFF80
FFFFFF80
ENDCHAR
STARTCHAR 2163
ENCODING 8547
SWIDTH 1008 0
DWIDTH 28 0
BBX 24 18 2 0
BITMAP
FFFFFF
FFFFFF
1CE038
1CE038
1C7030
1C7070
1C7070
1C3860
1C38E0
1C38E0
1C18C0
1C1DC0
1C1DC0
1C0D80
1C0F80
1C0F80
FFFFFF
FFFFFF
ENDCHAR
STARTCHAR 2164
ENCODING 8548
SWIDTH 792 0
DWIDTH 22 0
BBX 19 18 2 0
BITMAP
FFFFE0
FFFFE0
180700
1C0600
1C0E00
0C0E00
0E0C00
0E1C00
061C00
071800
073800
033800
03B000
03F000
01F000
01E000
FFFFE0
FFFFE0
ENDCHAR
STARTCHAR 2165
ENCODING 8549
SWIDTH 1008 0
DWIDTH 28 0
BBX 24 18 2 0
BITMAP
FFFFFF
FFFFFF
1C0738
1C0638
1C0E38
0E0E38
0E0C38
0E1C38
071C38
071838
073838
033838
03B038
03F038
01F038
01E038
FFFFFF
FFFFFF
ENDCHAR
STARTCHAR 2166
ENCODING 8550
SWIDTH 1296 0
DWIDTH 36 0
BBX 32 18 2 0
BITMAP
FFFFFFFF
FFFFFFFF
1C073838
1C063838
1C0E3838
0E0E3838
0E0C3838
0E1C3838
061C3838
07183838
07383838
03383838
03B03838
03F03838
01F03838
01E03838
FFFFFFFF
FFFFFFFF
ENDCHAR
STARTCHAR 2167
ENCODING 8551
SWIDTH 1548 0
DWIDTH 43 0
BBX 39 18 2 0
BITMAP
FFFFFFFFFE
FFFFFFFFFE
1C07387070
1C0E387070
1C0E387070
0C0E387070
0E0C387070
0E1C387070
061C387070
0718387070
0738387070
0338387070
03B0387070
03F0387070
01F0387070
01E0387070
FFFFFFFFFE
FFFFFFFFFE
ENDCHAR
STARTCHAR 2168
ENCODING 8552
SWIDTH 972 0
DWIDTH 27 0
BBX 24 18 2 0
BITMAP
FFFFFF
FFFFFF
1CE038
1C7070
1C38E0
1C38E0
1C1DC0
1C0F80
1C0F00
1C0700
1C0F80
1C1DC0
1C1DC0
1C38E0
1C7070
1CE070
FFFFFF
FFFFFF
ENDCHAR
STARTCHAR 2169
ENCODING 8553
SWIDTH 756 0
DWIDTH 21 0
BBX 18 18 2 0
BITMAP
FFFFC0
FFFFC0
380E00
1C1C00
0E3800
073800
077000
03E000
01E000
01C000
03E000
077000
077000
0E3800
1C1C00
1C1E00
FFFFC0
FFFFC0
ENDCHAR
STARTCHAR 216C
ENCODING 8556
SWIDTH 648 0
DWIDTH 18 0
BBX 15 18 2 0
BITMAP
FFC0
FFC0
1C00
1C00
1C00
1C00
1C00
1C00
1C00
1C00
1C0E
1C0E
1C0E
1C0E
1C0E
1C0E
FFFE
FFFE
ENDCHAR
STARTCHAR 216D
ENCODING 8557
SWIDTH 720 0
DWIDTH 20 0
BBX 17 18 2 0
BITMAP
03F300
0FFF00
3C1F00
700700
600700
E00300
E00000
C00000
C00000
C00000
C00000
E00380
E00380
700780
780F80
3F7F80
1FFB80
03E380
ENDCHAR
STARTCHAR 216E
ENCODING 8558
SWIDTH 720 0
DWIDTH 20 0
BBX 17 18 2 0
BITMAP
FFE000
FFF800
1C7E00
1C0E00
1C0700
1C0700
1C0380
1C0380
1C0380
1C0380
1C0380
1C0380
1C0700
1C0700
1C0E00
1C7E00
FFF800
FFE000
ENDCHAR
STARTCHAR 216F
ENCODING 8559
SWIDTH 1080 0
DWIDTH 30 0
BBX 26 18 2 0
BITMAP
FE003FC0
FF003FC0
1F003E00
1F007E00
1F807E00
1F80EE00
1DC0EE00
1DC0CE00
1CC1CE00
1CE18E00
1C638E00
1C738E00
1C770E00
1C370E00
1C3E0E00
1C1E0E00
FF9C7FC0
FF9C7FC0
ENDCHAR
STARTCHAR 2190
ENCODING 8592
SWIDTH 1044 0
DWIDTH 29 0
BBX 27 10 0 3
BITMAP
04000000
0C000000
1C000000
3C000000
7FFFFFE0
FFFFFFE0
3C000000
1C000000
0C000000
04000000
ENDCHAR
STARTCHAR 2191
ENCODING 8593
SWIDTH 432 0
DWIDTH 12 0
BBX 11 26 1 -4
BITMAP
0400
0E00
0F00
1F80
3F80
7FC0
FFE0
0E00
0E00
0E00
0E00
0E00
0E00
0E00
0E00
0E00
0E00
0E00
0E00
0E00
0E00
0E00
0E00
0E00
0E00
0E00
ENDCHAR
STARTCHAR 2192
ENCODING 8594
SWIDTH 1044 0
DWIDTH 29 0
BBX 26 12 1 2
BITMAP
00001000
00001800
00001C00
00001E00
00001F00
FFFFFFC0
FFFFFFC0
00001F80
00001E00
00001C00
00001800
00001000
ENDCHAR
STARTCHAR 2193
ENCODING 8595
SWIDTH 432 0
DWIDTH 12 0
BBX 11 27 0 -5
BITMAP
0600
0600
0600
0600
0600
0600
0600
0600
0600
0600
0600
0600
0600
0600
0600
0600
0600
0600
0600
0600
FFE0
7FC0
3FC0
1F80
0F00
0600
0400
ENDCHAR
STARTCHAR 2196
ENCODING 8598
SWIDTH 864 0
DWIDTH 24 0
BBX 19 20 2 0
BITMAP
FE0000
FC0000
F80000
F80000
FC0000
DE0000
8F0000
878000
03C000
01E000
00F000
007800
003C00
001E00
000F00
000780
0003C0
0001E0
0000E0
000040
ENDCHAR
STARTCHAR 2197
ENCODING 8599
SWIDTH 756 0
DWIDTH 21 0
BBX 20 20 -1 0
BITMAP
000FF0
0007F0
0003F0
0001F0
0003F0
000770
000E30
001C10
003800
007000
00E000
01C000
038000
070000
0E0000
1C0000
380000
700000
E00000
400000
ENDCHAR
STARTCHAR 2198
ENCODING 8600
SWIDTH 864 0
DWIDTH 24 0
BBX 20 20 2 0
BITMAP
400000
E00000
F00000
780000
3C0000
1E0000
0F0000
078000
03C000
01E000
00F000
007800
003C10
001E30
000F70
0007F0
0003F0
0003F0
0007F0
000FF0
ENDCHAR
STARTCHAR 2199
ENCODING 8601
SWIDTH 756 0
DWIDTH 21 0
BBX 20 20 1 0
BITMAP
000020
000070
0000E0
0001C0
000380
000700
000E00
001C00
003800
007000
00E000
01C000
838000
C70000
EE0000
FC0000
F80000
FC0000
FE0000
FF0000
ENDCHAR
STARTCHAR 21A9
ENCODING 8617
SWIDTH 828 0
DWIDTH 23 0
BBX 22 15 0 3
BITMAP
001FE0
001FF8
000078
00001C
00000C
00000C
0C000C
1C000C
3C003C
7FFFF8
FFFFE0
3C0000
1C0000
0C0000
040000
ENDCHAR
STARTCHAR 21B0
ENCODING 8624
SWIDTH 792 0
DWIDTH 22 0
BBX 17 20 2 0
BITMAP
040000
0C0000
1C0000
7C0000
FFFF80
FFFF80
7C0180
3C0180
1C0180
040180
000180
000180
000180
000180
000180
000180
000180
000180
000180
000180
ENDCHAR
STARTCHAR 21B1
ENCODING 8625
SWIDTH 720 0
DWIDTH 20 0
BBX 19 20 1 0
BITMAP
000800
000600
000700
000780
FFFFC0
FFFFE0
C00780
C00700
C00600
C00400
C00000
C00000
C00000
C00000
C00000
C00000
C00000
C00000
C00000
C00000
ENDCHAR
STARTCHAR 21B2
ENCODING 8626
SWIDTH 756 0
DWIDTH 21 0
BBX 19 20 0 0
BITMAP
0000E0
0000E0
0000E0
0000E0
0000E0
0000E0
0000E0
0000E0
0000E0
0000E0
0400E0
0C00E0
1C00E0
7C00E0
FFFFE0
FFFFE0
3C0000
1C0000
0C0000
040000
ENDCHAR
STARTCHAR 21B3
ENCODING 8627
SWIDTH 828 0
DWIDTH 23 0
BBX 19 20 2 0
BITMAP
E00000
E00000
E00000
E00000
E00000
E00000
E00000
E00000
E00000
E00000
E00400
E00600
E00780
E007C0
FFFFE0
FFFFE0
000780
000700
000600
000400
ENDCHAR
STARTCHAR 21B4
ENCODING 8628
SWIDTH 828 0
DWIDTH 23 0
BBX 19 20 2 0
BITMAP
FFFF00
FFFF00
000700
000700
000700
000700
000700
000700
000700
000700
000700
000700
000700
000700
003FE0
001FC0
001F80
000F80
000700
000200
ENDCHAR
STARTCHAR 21C6
ENCODING 8646
SWIDTH 1116 0
DWIDTH 31 0
BBX 27 20 2 0
BITMAP
04000000
0C000000
1C000000
7C000000
FFFFFFE0
FFFFFFE0
7C000000
1C000000
0C000000
04000000
00000400
00000600
00000700
00000780
FFFFFFC0
FFFFFFE0
000007C0
00000700
00000600
00000400
ENDCHAR
STARTCHAR 2202
ENCODING 8706
SWIDTH 612 0
DWIDTH 17 0
BBX 15 20 1 0
BITMAP
1F80
7FE0
39F0
0038
001C
001C
001C
0FCC
1FFE
3C7E
701E
600E
E00C
E00C
E01C
601C
7038
3EF0
3FE0
0FC0
ENDCHAR
STARTCHAR 2206
ENCODING 8710
SWIDTH 648 0
DWIDTH 18 0
BBX 18 20 0 0
BITMAP
00E000
01E000
01F000
03F000
03B000
033800
073800
071C00
0E1C00
0E1C00
0C0E00
1C0E00
1C0700
180700
380700
380380
700380
700380
7FFFC0
FFFFC0
ENDCHAR
STARTCHAR 220F
ENCODING 8719
SWIDTH 684 0
DWIDTH 19 0
BBX 14 20 3 0
BITMAP
FFFC
FFFC
C01C
C01C
C01C
C01C
C01C
C01C
C01C
C01C
C01C
C01C
C01C
C01C
C01C
C01C
C01C
C01C
C01C
C01C
ENDCHAR
STARTCHAR 2211
ENCODING 8721
SWIDTH 576 0
DWIDTH 16 0
BBX 14 20 1 0
BITMAP
FFFC
FFFC
FFFC
7800
3C00
1E00
0F00
0780
03C0
01E0
01E0
03C0
0780
0F00
1E00
3C00
7800
F000
FFFC
FFFC
ENDCHAR
STARTCHAR 2212
ENCODING 8722
SWIDTH 540 0
DWIDTH 15 0
BBX 11 2 2 7
BITMAP
FFE0
FFE0
ENDCHAR
STARTCHAR 2215
ENCODING 8725
SWIDTH 396 0
DWIDTH 11 0
BBX 11 18 0 0
BITMAP
00E0
00C0
01C0
01C0
0180
0380
0300
0700
0600
0E00
0C00
1C00
1800
3800
3000
7000
6000
E000
ENDCHAR
STARTCHAR 2219
ENCODING 8729
SWIDTH 288 0
DWIDTH 8 0
BBX 4 4 2 6
BITMAP
60
F0
F0
60
ENDCHAR
STARTCHAR 221A
ENCODING 8730
SWIDTH 648 0
DWIDTH 18 0
BBX 18 24 1 0
BITMAP
0007C0
0007C0
000E00
000E00
000C00
001C00
001C00
001800
003800
E03800
E03000
707000
707000
706000
38E000
38E000
18C000
1DC000
1DC000
0D8000
0F8000
0F8000
070000
070000
ENDCHAR
STARTCHAR 221E
ENCODING 8734
SWIDTH 792 0
DWIDTH 22 0
BBX 20 10 1 3
BITMAP
1E0780
3F8FE0
73DCE0
E1F870
E0F030
E0F030
E0F870
73DC60
7F9FE0
1E0780
ENDCHAR
STARTCHAR 222B
ENCODING 8747
SWIDTH 324 0
DWIDTH 9 0
BBX 8 25 0 -5
BITMAP
07
0F
1E
1C
1C
1C
1C
1C
1C
1C
1C
1C
1C
1C
1C
1C
1C
1C
1C
1C
1C
1C
38
F8
F0
ENDCHAR
STARTCHAR 2248
ENCODING 8776
SWIDTH 576 0
DWIDTH 16 0
BBX 14 10 1 3
BITMAP
3C00
7F08
FFF8
41F0
0000
0000
7E08
FF9C
43F8
00F0
ENDCHAR
STARTCHAR 2260
ENCODING 8800
SWIDTH 576 0
DWIDTH 16 0
BBX 13 14 2 1
BITMAP
0070
0060
00E0
FFF8
FFF8
0380
0700
0600
0E00
FFF8
FFF8
3000
7000
E000
ENDCHAR
STARTCHAR 2264
ENCODING 8804
SWIDTH 540 0
DWIDTH 15 0
BBX 11 13 2 2
BITMAP
0020
01E0
0FE0
7F00
F800
F000
FE00
1FC0
03E0
0060
0000
FFE0
FFE0
ENDCHAR
STARTCHAR 2265
ENCODING 8805
SWIDTH 540 0
DWIDTH 15 0
BBX 11 13 2 2
BITMAP
8000
F000
FE00
1FC0
03E0
01E0
0FE0
7F00
F800
C000
0000
FFE0
FFE0
ENDCHAR
STARTCHAR 22C5
ENCODING 8901
SWIDTH 288 0
DWIDTH 8 0
BBX 4 4 2 6
BITMAP
60
F0
F0
60
ENDCHAR
STARTCHAR 24C5
ENCODING 9413
SWIDTH 828 0
DWIDTH 23 0
BBX 21 20 1 0
BITMAP
01FC00
07FF00
0F0780
1C01C0
31F8E0
71FC70
618E30
618630
E18630
C18E38
C1FC38
E1F830
618030
618030
718070
3000E0
1C01C0
0F0780
07FF00
01FC00
ENDCHAR
STARTCHAR 25A0
ENCODING 9632
SWIDTH 936 0
DWIDTH 26 0
BBX 20 20 3 0
BITMAP
FFFFF0
FFFFF0
FFFFF0
FFFFF0
FFFFF0
FFFFF0
FFFFF0
FFFFF0
FFFFF0
FFFFF0
FFFFF0
FFFFF0
FFFFF0
FFFFF0
FFFFF0
FFFFF0
FFFFF0
FFFFF0
FFFFF0
FFFFF0
ENDCHAR
STARTCHAR 25A1
ENCODING 9633
SWIDTH 936 0
DWIDTH 26 0
BBX 20 20 3 0
BITMAP
FFFFF0
FFFFF0
C00070
C00070
C00070
C00070
C00070
C00070
C00070
C00070
C00070
C00070
C00070
C00070
C00070
C00070
C00070
C00070
FFFFF0
FFFFF0
ENDCHAR
STARTCHAR 25B2
ENCODING 9650
SWIDTH 828 0
DWIDTH 23 0
BBX 23 20 0 0
BITMAP
001000
001800
003800
003C00
007C00
00FE00
00FE00
01FF00
01FF80
03FF80
03FFC0
07FFC0
0FFFE0
0FFFE0
1FFFF0
1FFFF8
3FFFF8
7FFFFC
7FFFFC
FFFFFE
ENDCHAR
STARTCHAR 25B3
ENCODING 9651
SWIDTH 828 0
DWIDTH 23 0
BBX 23 20 0 0
BITMAP
001000
001800
003800
003C00
007C00
00EE00
00C600
01C700
018380
038380
0301C0
0700C0
0E00E0
0C0060
1C0070
180038
380038
70001C
7FFFFC
FFFFFE
ENDCHAR
STARTCHAR 25CA
ENCODING 9674
SWIDTH 540 0
DWIDTH 15 0
BBX 13 20 1 0
BITMAP
0700
0780
0F80
0FC0
1DC0
38E0
3870
7070
7038
E038
E038
7038
7070
3870
38E0
1DC0
0FC0
0F80
0780
0700
ENDCHAR
STARTCHAR 25CB
ENCODING 9675
SWIDTH 828 0
DWIDTH 23 0
BBX 21 20 1 0
BITMAP
01FC00
07FF00
0F8F80
1C01C0
3800E0
700070
600030
600038
E00038
E00038
E00038
E00038
600038
600030
700070
3800E0
1C01C0
0F0780
07FF00
01FC00
ENDCHAR
STARTCHAR 25CF
ENCODING 9679
SWIDTH 828 0
DWIDTH 23 0
BBX 21 20 1 0
BITMAP
01FC00
07FF00
0FFF80
1FFFC0
3FFFE0
7FFFF0
7FFFF0
7FFFF8
FFFFF8
FFFFF8
FFFFF8
FFFFF8
7FFFF8
7FFFF0
7FFFF0
3FFFE0
1FFFC0
0FFF80
07FF00
01FC00
ENDCHAR
STARTCHAR 262E
ENCODING 9774
SWIDTH 828 0
DWIDTH 23 0
BBX 21 20 1 0
BITMAP
01FC00
07FF00
0E6780
1C61C0
3860E0
706070
606030
606030
E06030
C0F038
C1F838
E3FC30
676F30
6E67B0
7C63E0
3861E0
1C61C0
0F6780
07FF00
01F800
ENDCHAR
STARTCHAR 2713
ENCODING 10003
SWIDTH 972 0
DWIDTH 27 0
BBX 25 20 1 0
BITMAP
00000100
00000380
00000700
00000E00
00001C00
00003800
00007800
0000F000
0001E000
0003C000
40038000
E0070000
700E0000
781C0000
3C380000
1E700000
0FE00000
07C00000
03800000
01000000
ENDCHAR
STARTCHAR 2715
ENCODING 10005
SWIDTH 756 0
DWIDTH 21 0
BBX 19 20 1 0
BITMAP
400040
E000E0
7001C0
380380
3C0700
1E0F00
0F1E00
07BC00
03F800
01F000
01F000
03F800
07BC00
0F1E00
1E0F00
3C0780
380380
7001C0
E000E0
400040
ENDCHAR
STARTCHAR 2780
ENCODING 10112
SWIDTH 828 0
DWIDTH 23 0
BBX 21 20 1 0
BITMAP
01FC00
07FF00
0F0780
1C01C0
3800E0
703060
607070
61F030
E03030
C03038
C03038
E03030
603030
603030
703070
3800E0
1C01C0
0F0780
07FF00
01FC00
ENDCHAR
STARTCHAR 2781
ENCODING 10113
SWIDTH 828 0
DWIDTH 23 0
BBX 21 20 1 0
BITMAP
01FC00
07FF00
0F0780
1C01C0
3800E0
70F060
61F870
618C30
E18C30
C01838
C07838
E0E030
618030
61FC30
73FC70
3800E0
1C01C0
0F0780
07FF00
01FC00
ENDCHAR
STARTCHAR 2782
ENCODING 10114
SWIDTH 828 0
DWIDTH 23 0
BBX 21 20 1 0
BITMAP
01FC00
07FF00
0F0780
1C01C0
3000E0
73FC70
63FC30
603830
E07030
C07838
C01C38
E00C30
638C30
61FC30
70F060
3800E0
1C01C0
0F0780
07FF00
01F800
ENDCHAR
STARTCHAR 2783
ENCODING 10115
SWIDTH 828 0
DWIDTH 23 0
BBX 21 20 1 0
BITMAP
01FC00
07FF00
0F0780
1C01C0
3800E0
703870
607830
60D830
E1D830
C19838
C31838
E3FE30
63FE30
601830
701860
3800E0
1C01C0
0F0780
07FF00
01F800
ENDCHAR
STARTCHAR 2784
ENCODING 10116
SWIDTH 828 0
DWIDTH 23 0
BBX 21 20 1 0
BITMAP
01FC00
07FF00
0F0780
1C01C0
3800E0
70F870
61F830
618030
E1B030
C1F838
C01C38
E00C30
630C30
61F830
70F060
3800E0
1C01C0
0F0780
07FF00
01F800
ENDCHAR
STARTCHAR 2785
ENCODING 10117
SWIDTH 828 0
DWIDTH 23 0
BBX 21 20 1 0
BITMAP
01FC00
07FF00
0F0780
1C01C0
3800E0
707C60
61F870
618030
E37030
C3FC38
C39C38
E30C30
638C30
61FC30
70F060
3800E0
1C01C0
0F0780
07FF00
01F800
ENDCHAR
STARTCHAR 2786
ENCODING 10118
SWIDTH 828 0
DWIDTH 23 0
BBX 21 20 1 0
BITMAP
01FC00
07FF00
0F0780
1C01C0
3800E0
73FE70
63FE30
601C30
E03830
C03038
C07038
E06030
606030
60E030
70C060
3800E0
1C01C0
0F0780
07FF00
01F800
ENDCHAR
STARTCHAR 2787
ENCODING 10119
SWIDTH 828 0
DWIDTH 23 0
BBX 21 20 1 0
BITMAP
01FC00
07FF00
0F0780
1C01C0
3800E0
70F860
61FC70
618C30
E18C30
C0F838
C1FC38
E38C30
638C30
61FC30
70F860
3800E0
1C01C0
0F0780
07FF00
01F800
ENDCHAR
STARTCHAR 2788
ENCODING 10120
SWIDTH 828 0
DWIDTH 23 0
BBX 21 20 1 0
BITMAP
01FC00
07FF00
0F0780
1C01C0
3800E0
70F070
61FC30
638C30
E30E30
C38E38
C1FC38
E0EC30
601C30
61F830
71F060
3800E0
1C01C0
0F0780
07FF00
01F800
ENDCHAR
STARTCHAR E000
ENCODING 57344
SWIDTH 828 0
DWIDTH 23 0
BBX 20 20 1 0
BITMAP
0FFFF0
0FFFF0
0C0000
0C0000
0C0000
0C0000
0C0000
0C0000
0C0000
0C0000
0C0000
0C0000
0C0000
0C0000
FFC000
7F8000
3F0000
1E0000
0C0000
040000
ENDCHAR
STARTCHAR E001
ENCODING 57345
SWIDTH 1080 0
DWIDTH 30 0
BBX 27 20 2 0
BITMAP
003F0000
00FFC000
03E1C000
07800000
07000000
0E000600
0C000F00
1C001F80
18001FC0
18003FE0
FF800600
7F000600
7E000600
3C000E00
18000C00
00001C00
00007800
0071F000
00FFE000
003F0000
ENDCHAR
STARTCHAR E002
ENCODING 57346
SWIDTH 936 0
DWIDTH 26 0
BBX 24 20 1 0
BITMAP
00FC00
07FF00
0F8E00
1C0000
380010
300018
700038
60007C
6000FE
E001FF
E00018
600038
600038
700030
700070
3800E0
1C01C0
0F8780
07FF00
01FC00
ENDCHAR
STARTCHAR FB00
ENCODING 64256
SWIDTH 648 0
DWIDTH 18 0
BBX 17 21 1 0
BITMAP
0F0780
1F0F80
3F1E80
381C00
381C00
381C00
381C00
FFFF80
FFFF80
381C00
381C00
381C00
381C00
381C00
381C00
381C00
381C00
381C00
381C00
381C00
381C00
ENDCHAR
STARTCHAR FB01
ENCODING 64257
SWIDTH 612 0
DWIDTH 17 0
BBX 14 21 1 0
BITMAP
0F1C
1F3C
3F1C
3808
3800
3800
3800
FFFC
FFFC
381C
381C
381C
381C
381C
381C
381C
381C
381C
381C
381C
381C
ENDCHAR
STARTCHAR FB02
ENCODING 64258
SWIDTH 612 0
DWIDTH 17 0
BBX 14 20 1 0
BITMAP
0F1C
1F1C
3F1C
381C
381C
381C
FFFC
FFFC
381C
381C
381C
381C
381C
381C
381C
381C
381C
381C
381C
381C
ENDCHAR
STARTCHAR FB03
ENCODING 64259
SWIDTH 936 0
DWIDTH 26 0
BBX 23 21 1 0
BITMAP
0F078C
1F0F9E
3F1E9E
381C0C
381C00
381C00
381C00
FFFFFC
FFFFFC
381C0C
381C0C
381C0C
381C0C
381C0C
381C0C
381C0C
381C0C
381C0C
381C0C
381C0C
381C0C
ENDCHAR
STARTCHAR FB04
ENCODING 64260
SWIDTH 936 0
DWIDTH 26 0
BBX 22 20 1 0
BITMAP
0F078C
1F0F8C
3F1E8C
381C0C
381C0C
381C0C
FFFFFC
FFFFFC
381C0C
381C0C
381C0C
381C0C
381C0C
381C0C
381C0C
381C0C
381C0C
381C0C
381C0C
381C0C
ENDCHAR
STARTCHAR FEFF
ENCODING 65279
SWIDTH 0 0
DWIDTH 0 0
BBX 0 0 0 0
BITMAP
ENDCHAR
ENDFONT
